<?xml version="1.0" encoding="UTF-8"?>
<svg id="Layer_1" data-name="Layer 1" xmlns="http://www.w3.org/2000/svg" viewBox="0 0 577.52 527.69">
  <defs>
    <style>
      .cls-1 {
        fill: #e4608f;
      }

      .cls-1, .cls-2, .cls-3, .cls-4, .cls-5, .cls-6, .cls-7 {
        stroke-miterlimit: 10;
      }

      .cls-1, .cls-3, .cls-4, .cls-6, .cls-7 {
        stroke: #603913;
      }

      .cls-2 {
        fill: #fff;
      }

      .cls-2, .cls-5 {
        stroke: #8b5e3c;
        stroke-width: 1.5px;
      }

      .cls-3 {
        fill: #f498b8;
      }

      .cls-4 {
        fill: #8b5e3c;
      }

      .cls-4, .cls-7 {
        stroke-width: 3px;
      }

      .cls-8 {
        fill: #f1f2f2;
      }

      .cls-5 {
        fill: none;
      }

      .cls-6 {
        stroke-width: 4px;
      }

      .cls-6, .cls-7 {
        fill: #ffd8a9;
      }

      .cls-9 {
        fill: #e6e7e8;
      }
    </style>
  </defs>
  <path class="cls-7" d="M544.09,526.02L27.42,469.13c-10.62-1.17-18.51-8.25-18.51-16.6v-72.77c0-10.14,11.45-17.95,24.35-16.62l516.67,53.34c10.7,1.1,18.69,8.21,18.69,16.62v76.31c0,10.19-11.58,18.03-24.53,16.6Z"/>
  <rect class="cls-1" x="344.39" y="170.63" width="116.09" height="73.41"/>
  <path class="cls-6" d="M544.09,355.23L27.42,298.35c-10.62-1.17-18.51-8.25-18.51-16.6v-72.77c0-10.14,11.45-17.95,24.35-16.62l516.67,53.34c10.7,1.1,18.69,8.21,18.69,16.62v76.31c0,10.19-11.58,18.03-24.53,16.6Z"/>
  <path class="cls-4" d="M543.67,418.26L27.48,362.63c-10.64-1.15-18.57-8.24-18.57-16.61v-30.4c0-10.19,11.58-18.03,24.53-16.6l516.51,56.87c10.68,1.18,18.6,8.34,18.51,16.74l-.32,29.16c-.11,10.12-11.61,17.85-24.47,16.47Z"/>
  <g>
    <path class="cls-3" d="M576.04,223.44c-1.06-4.21-2.9-8.56-5.45-12.8-2.56-4.21-5.8-8.52-10-11.65-9.47-6.19-21.1-10.65-31.62-13.6-20.95-6.22-50.4-10.32-71.64-19.02-4.97-1.83-10.33-2.98-15.06-4.06-4.78-1.08-9.13-2.09-12.65-3.2-3.52-1.08-6.23-2.26-7.97-3.31-1.69-1.04-2.46-1.73-2.46-1.73-.2-.18-.29-.32-.34-.5-.29,.79-.63,1.58-.97,2.37-1.3,2.99-2.75,5.9-4.44,8.67,.15,.04,.29,.07,.48,.11,.63,.11,1.35,.22,2.07,.36,.73,.21,1.55,.43,2.37,.68,1.59,.5,3.52,.93,5.26,1.83,1.84,.79,3.77,1.66,5.46,2.88,1.88,1.08,3.38,2.48,4.87,3.92,2.71,2.98,4.78,6.44,4.88,9.75,.29,3.23-.63,7.26-3.96,10.25-.68,.83-1.74,1.37-2.66,2.02-.92,.65-1.89,1.26-2.99,1.65-1.06,.4-2.13,.83-3.14,1.22-1.11,.22-2.22,.43-3.23,.65-2.07,.54-4.1,.54-5.89,.65-.87,.03-1.69,.07-2.51,.11-.77-.07-1.45-.11-2.13-.18-2.56-.22-4.1-.32-4.1-.32-.83-.25-.48-2.01,.29-2.12h5.89c.68-.07,1.45-.18,2.22-.25,1.55-.21,3.33-.29,5.02-.86,.87-.25,1.74-.47,2.65-.72,.77-.36,1.55-.76,2.37-1.15,.92-.32,1.55-.83,2.22-1.37,.58-.5,1.45-.93,1.79-1.58,2.36-2.27,2.8-5.25,2.61-7.7,0-2.52-1.55-5.32-3.57-7.87-1.21-1.22-2.32-2.52-3.86-3.49-1.3-1.15-2.94-1.98-4.44-2.8-1.45-.9-3.14-1.4-4.54-1.94-.73-.29-1.4-.54-2.03-.79-.67-.18-1.3-.33-1.88-.47-.34-.11-.63-.18-.97-.25-2.22,3.38-4.63,6.58-7.29,9.53-6.22,6.69-13.86,13.41-23.8,18.77-5.02,2.7-10.48,4.85-16.22,6.62-5.74,1.83-11.73,3.2-17.87,4.17-12.26,1.94-25.25,2.19-37.27-.47-5.99-1.4-11.49-3.67-16.22-6.54-.24-.18-.48-.39-.73-.54,.05,.25-.09,.58-.53,.86,0,0-.72,.5-2.22,1.01-1.45,.61-3.72,1.12-6.52,1.51-5.6,.76-13.47,.79-22.21-.03-4.4-.43-8.93-.94-13.76-1.98-4.78-1.04-9.66-2.95-13.32-5.93-.19-.15-.34-.32-.53-.51-.29,.29-.87,.54-1.65,.68,0,0-1.4,.25-4,.72-2.66,.36-6.42,1.19-11.39,1.55-2.46,.36-5.22,.29-8.21,.25-1.54,.04-3.09-.14-4.63-.32-1.64-.11-3.24-.4-4.88-.79-6.56-1.4-13.51-4.32-18.78-8.95-1.16-.94-2.22-1.94-3.23-3.02-.33-.04-.68-.11-.72-.25,0,0,0-.25-.1-.65-7.82-9.1-9.95-22.04-2.99-32.83,3.86-6.15,9.8-11.22,15.98-15.57,6.27-4.35,12.99-7.91,19.55-10.89,6.52-2.95,13.86-5.72,21.72-8.06,3.96-1.15,8.07-2.19,12.26-3.02,1.06-.22,2.12-.47,3.19-.65l1.64-.25,.44-.07h.05c.1,.04,.05-.04,.05-.07l-.1-2.34c.19-4.14,1.06-8.16,2.32-12.08-1.6,.04-4.16-.04-7.87,.29,0,0-4.54,.18-12.79,1.98-8.25,1.8-20.03,5.32-34.28,10.72-14.24,5.43-31.14,12.59-49.53,21.68-4.64,2.23-9.03,4.71-14,7.23-2.41,1.26-4.92,2.52-7.39,3.81-2.65,1.11-5.31,2.27-8.01,3.42-2.7,1.19-5.46,2.3-8.35,3.27-2.85,1.04-5.8,2.09-8.69,3.13-6.03,1.83-12.07,3.85-18.44,5.54-12.6,3.56-25.87,6.76-39.25,10.54l-5.07,1.36c-1.4,.36-3.14,1.15-4.68,1.69-3.19,1.22-6.37,2.55-9.46,3.99-6.03,2.84-12.12,6.22-15.84,10.43-3.28,4.74-6.13,10.07-5.84,15.39,.1,2.66,.78,5.43,2.08,7.95,1.06,2.55,3.23,4.78,5.55,7.05,2.32,2.27,5.02,4.6,7.1,7.34,2.27,2.73,3.33,5.86,4.4,8.77,2.02,5.9,2.9,12.08,2.99,18.2,.15,6.11-.29,12.19-.72,18.27-.29,3.13-.24,5.9-.67,9.24-.39,2.95-.63,5.9-.05,8.63,.58,2.77,2.13,5.14,4.92,6.11,2.9,1.08,6.57,.9,9.85-.18,.53-.18,1.01-.36,1.5-.58,2.7-1.08,5.21-2.66,6.95-4.53,1.01-1.08,1.79-2.26,2.07-3.38,.1-.57,.1-1.04,0-1.58l-.58-2.3-2.27-9.17-1.5-9.31c-.34-3.13-.39-6.26-.63-9.42l.34-4.74c.05-1.59,.2-3.13,.63-4.75,.43-1.54,.62-3.16,1.3-4.71,.72-1.55,1.25-3.13,2.17-4.64,2.07-2.95,4.54-6.04,8.88-7.8,4.1-1.87,9.12-2.41,13.71-1.76,4.4,.72,8.55,2.12,11.83,4.82l.34,.25c.29,.25,.58,.5,.82,.79,2.8,2.73,3.43,6.19,4.15,9.89,.67,4.24,.92,8.95,1.4,13.99,.24,2.48,.53,5.07,1.11,7.62,.58,2.45,1.35,5.14,3.04,6.83,.82,.83,1.69,1.29,2.75,1.44,1.07,.18,2.57-.11,4.01-.54,1.45-.43,3.14-1.11,4.2-1.76,1.06-.61,2.03-1.58,2.8-2.66,1.83-2.55,2.85-5.68,3.62-8.88,0-.04,.05-.07,.05-.11,.19-.76,.34-1.55,.53-2.3,.82-4.17,1.64-8.34,2.46-12.55,.97-4.24,2.03-8.67,5.12-12.87,1.54-2.09,3.91-4.17,7.14-5.33,3.28-1.18,6.85-1.26,10.04-.86,2.65,.29,5.41,1.22,7.53,2.55,.53,.29,.97,.61,1.4,.97,2.32,1.87,3.76,4.03,4.77,6.15,2.03,4.28,2.8,8.52,3.67,12.59,.82,4.03,1.59,8.06,3.47,11.33,1.83,3.42,5.12,4.75,9.66,4.17,4.34-.58,9.07-2.37,12.89-4.03,1.21-.58,2.27-1.29,3.29-2.09,1.93-1.54,3.52-3.41,5.02-5.36,2.32-2.95,4.49-6.11,7.97-8.66,3.33-2.7,8.21-4.03,12.55-4.32,4.39-.4,8.88,.5,12.21,2.01,3.38,1.51,5.89,3.38,8.02,5.18,2.36,2.08,4.2,4.06,5.79,5.86,.48,.54,.92,1.08,1.35,1.58l.15-.04v.04l.1,.07c.05,.11,.14,.18,.19,.29,.34,.43,.82,1.08,1.35,1.76l-.19,.07c.96,1.47,2.07,2.84,3.52,3.92,2.12,1.58,4.68,2.55,7.43,3.02,5.55,.93,11.15,.07,15.4-.61,3.86-.68,6.66-1.37,8.59-1.76l.19-.07h.05c.14-.04,.29-.07,.43-.11,.19-.04,.29-.07,.43-.11,2.17-.43,4.3-1.04,6.38-1.76,3.95-1.37,7.86-3.13,12.07-4.68,3.33-1.19,7.15-2.16,11.15-2.16,3.96-.04,7.77,.86,11.1,2.05,6.76,2.41,11.78,6.58,15.88,10.61,1.69,1.65,3.33,3.34,4.93,4.96,2.32,2.34,4.63,4.53,7.29,6.37,2.27,1.54,4.68,2.77,7.48,3.6,2.8,.9,5.65,1.4,8.55,1.54,5.75,.25,11.35-1.4,16.22-3.74,4.88-2.37,9.27-5.14,13.57-7.98,4.39-2.95,8.74-5.93,13.37-8.56,4.64-2.55,9.56-4.89,15.01-6.19,5.41-1.33,11.25-1.58,16.66-.61,2.71,.25,5.5,1.4,7.63,2.52,2.22,1.15,4.05,2.52,5.89,3.85,.44,.36,.87,.68,1.26,1.04,2.99,2.44,5.6,5,8.06,7.48,5.65,5.68,10.57,11.33,16.17,15.9,.53,.43,1.06,.86,1.64,1.26,2.32,1.73,4.88,3.16,7.44,3.6,3.19,.57,5.98-1.23,8.01-3.35,2.03-2.19,3.47-4.68,4.73-7.09,1.26-2.37,1.84-4.89,3.19-7.41,1.21-2.52,4.1-4.75,7.34-5.72,1.69-.32,3.14-.79,4.88-.9,1.74-.14,3.43,0,4.97,.33,6.03,1.37,10.04,4.17,14.34,4.6,1.01,.14,2.03,.14,2.99,0,.58,.03,1.35-.61,2.17-.9,.68-.47,1.26-1.04,1.93-1.51,.53-.61,1.06-1.19,1.55-1.76,1.93-2.37,3.52-4.67,5.35-6.51,.92-.93,1.98-1.69,2.8-2.41,1.12-.58,2.08-1.12,2.9-1.58,1.79-.83,3.14-1.19,4.06-1.51,.92-.32,1.35-.47,1.35-.47,1.6-.47,3-.79,4.3-1.01,1.35-.15,2.37-.4,3.76,.07,.58,.14,.77-.37,.77-.02h1.01c.05-.68,.19-.2,.29-.63h-.67c-2.66-.04-2.22-2.09,0-2.16,0,0,1.06,.04,2.95-.18,1.83-.25,4.64-.68,7.19-2.27,2.61-1.47,4.64-4.21,5.46-7.62,.77-3.45,.53-7.48-.53-11.65Zm-127.65-13.77c-1.64,1.26-3.52,2.34-5.36,3.38-1.93,.9-3.87,1.8-5.75,2.66-.97,.43-1.88,.9-2.85,1.3-.96,.32-1.93,.65-2.94,.97-1.93,.65-3.81,1.26-5.65,1.87-14.91,4.42-35.14,6.04-51.13,6.26-4,.14-7.77,0-11.15,.04-.39-.04-.82,.04-1.55-.07-.63-.11-.72-.11-1.16-.18-.77-.11-1.5-.18-2.18-.25-1.5-.1-2.8-.21-4.05-.32-4.97-.32-7.97-.5-7.97-.5-.39-.07-.67-.25-.87-.43l-.14-.18-.05-.11-.05-.04c.05-.07-.05,.11-.39-.29,.1-.5,.29-.32,.29-.36l.05,.04s.09,.03,.09,.07c.05,.07,.05,.11,.05,.18v.04s.05,.03,.1,.03c.14,.04,.19-.25,.05-.32-.19-.39,.05-.29,.1-.47,.24-.18,.53-.29,.92-.32,0,0,3.04,.07,8.06,.22,1.26,.03,2.66,.11,4.15,.18,.77,.03,1.59,.11,2.42,.18l1.16,.14c.1,.04,.48,0,.97,0,3.33-.14,7.05-.14,11.01-.39,15.69-.72,35.24-2.84,49.29-7.01,1.7-.58,3.48-1.15,5.31-1.73,.92-.29,1.83-.61,2.75-.9,.92-.36,1.74-.76,2.66-1.15,1.74-.79,3.57-1.58,5.36-2.38,1.69-.9,3.43-1.79,4.88-2.91,6.28-4.1,10.67-10,10.23-15.28-.29-5.39-5.65-8.99-9.65-10.71-2.12-.79-3.76-1.51-5.07-1.76-1.26-.36-1.93-.54-1.93-.54-1.5-.43-.77-2.41,.87-2.05,0,0,.72,.14,2.08,.47,1.4,.25,3.28,.94,5.65,1.76,1.16,.47,2.37,1.08,3.72,1.73,1.21,.75,2.61,1.54,3.77,2.59,2.56,1.98,4.35,5,4.78,8.27,.87,6.69-4.11,13.59-10.87,18.3Z"/>
    <path class="cls-1" d="M574.79,225.9c-1.05-4.17-2.87-8.49-5.41-12.7-2.54-4.17-5.75-8.45-9.92-11.55-9.39-6.14-20.93-10.56-31.37-13.49-20.78-6.17-50-10.24-71.07-18.87-4.93-1.82-10.25-2.96-14.94-4.03-4.74-1.07-9.05-2.07-12.55-3.18-3.5-1.07-6.18-2.25-7.9-3.28-1.68-1.04-2.44-1.71-2.44-1.71-.19-.18-.29-.32-.33-.5-.29,.78-12.03,11.41-12.36,12.2,1.39,1.18,139.52,25.7,127.87,71.24-1.75,6.84-11.97,12.49-20.35,13.38-9.58,.89-16.14-7.67-24.52-3.21-9.58,4.46-1.52,20.14-6.31,27.27-.61,.9-4.78,2.4-6.04,2.42-8.76,.1-15.15-14.16-26.92-30.18-8.85-15.78-38.37-12.95-51.14-4.33-6.8,5.07-12.59,13.63-12.97,21.55,4.35-2.93,8.67-5.89,13.26-8.49,4.6-2.53,9.48-4.85,14.89-6.14,5.37-1.32,11.16-1.57,16.52-.61,2.68,.25,9.89,5.67,12,6.78,2.08,1.08,32.53,36.57,39.68,28.09,1.51-.63,2.86-1.67,3.97-2.83,2.01-2.18,3.45-4.64,4.69-7.03,1.25-2.35,1.82-4.85,3.16-7.35,1.2-2.5,4.07-4.71,7.28-5.67,1.68-.32,3.11-.78,4.84-.89,1.72-.14,3.4,0,4.93,.32,5.99,1.35,9.96,4.14,14.22,4.56,1.01,.14,2.01,.14,2.97,0,.57,.03,1.34-.61,2.15-.89,.67-.46,1.25-1.04,1.92-1.5,.53-.61,1.05-1.18,1.53-1.75,1.91-2.35,3.49-4.64,5.31-6.46,.91-.93,1.96-1.68,2.78-2.39,1.11-.57,2.06-1.11,2.87-1.57,1.77-.82,3.11-1.18,4.03-1.5,.91-.32,1.34-.46,1.34-.46,1.58-.46,2.97-.79,4.27-1,1.34-.14,2.35-.39,3.73,.07,.57,.14,.77-.64,.77-.28h1.01c.05-.68,.19,.06,.29-.36h-.67c-2.64-.04-2.21-2.07,0-2.14,0,0,1.05,.04,2.92-.18,1.82-.25,4.6-.68,7.13-2.25,2.59-1.46,4.6-4.17,5.41-7.56,.77-3.43,.53-7.42-.53-11.56Z"/>
  </g>
  <path class="cls-8" d="M32.41,328.88c.46,0,1.18-.09,1.54-.41,.26-.23,.37-.46-.12-.46-.46,0-1.18,.09-1.54,.41-.26,.23-.37,.46,.12,.46h0Z"/>
  <path class="cls-8" d="M49.49,346.57c.46,0,1.23-.13,1.42-.64,.17-.45-.15-.8-.63-.8-.46,0-1.23,.13-1.42,.64-.17,.45,.15,.8,.63,.8h0Z"/>
  <path class="cls-8" d="M68.66,324.52l-1.86-5.08c-.17-.45-.87-.41-1.25-.3-.3,.09-1.1,.42-.93,.88l1.86,5.08c.17,.45,.87,.41,1.25,.3,.3-.09,1.1-.42,.93-.88h0Z"/>
  <path class="cls-8" d="M42.96,315.33c.44,0,1.24-.14,1.43-.62,.17-.45-.15-.74-.62-.74s-1.24,.14-1.43,.62c-.17,.45,.15,.74,.62,.74h0Z"/>
  <path class="cls-8" d="M94.54,334.61l3.63,3.68c.12,.12,.43,.11,.56,.11,.28-.01,.59-.08,.85-.18,.2-.08,.93-.4,.63-.7l-3.63-3.68c-.12-.12-.43-.11-.56-.11-.28,.01-.59,.08-.85,.18-.2,.08-.93,.4-.63,.7h0Z"/>
  <path class="cls-8" d="M124.29,347.37c2.17,0,4.35,0,6.52,0,.47,0,1.14-.36,1.2-.87,.06-.57-.58-.7-1-.7h-6.52c-.47,0-1.14,.36-1.2,.87-.06,.57,.58,.7,1,.7h0Z"/>
  <path class="cls-8" d="M168.23,337.15l.93-1.45c.09-.14,.13-.29,0-.42-.07-.06-.15-.1-.24-.12-.11-.04-.22-.05-.34-.05-.29,0-.59,.06-.85,.17l-.25,.12c-.13,.07-.25,.17-.34,.29l-.93,1.45c-.09,.14-.13,.29,0,.42,.07,.06,.15,.1,.24,.12,.11,.04,.22,.05,.34,.05,.29,0,.59-.06,.85-.17l.25-.12c.13-.07,.25-.17,.34-.29h0Z"/>
  <path class="cls-8" d="M154.21,324.18l-2.77-1.48c-.2-.11-.5-.1-.72-.08-.27,.03-.59,.13-.82,.28-.16,.1-.38,.26-.41,.46-.02,.18,.06,.31,.22,.39,.92,.49,1.84,.99,2.77,1.48,.2,.11,.5,.1,.72,.08,.27-.03,.59-.13,.82-.28,.16-.1,.38-.26,.41-.46,.02-.18-.06-.31-.22-.39h0Z"/>
  <path class="cls-8" d="M81.32,353.4h-.93c-.27,0-.53,.04-.79,.11-.14,.04-.28,.08-.41,.14-.12,.04-.23,.1-.33,.16l-.15,.11c-.07,.05-.11,.12-.1,.21l.06,.08c.1,.05,.21,.07,.32,.07h.93c.27,0,.53-.04,.79-.11,.14-.04,.28-.08,.41-.14,.12-.04,.23-.1,.33-.16l.15-.11c.07-.05,.11-.12,.1-.21l-.06-.08c-.1-.05-.21-.07-.32-.07h0Z"/>
  <path class="cls-8" d="M117.46,356.67h1.86c.29,0,.58-.05,.85-.16,.19-.09,.47-.25,.58-.45,.08-.15,.13-.34-.01-.49-.15-.15-.39-.22-.59-.22h-1.86c-.29,0-.58,.05-.85,.16-.19,.09-.47,.25-.58,.45-.08,.15-.13,.34,.01,.49,.15,.15,.39,.22,.59,.22h0Z"/>
  <path class="cls-8" d="M179.61,359.47l3.73,.73c.26,.05,.55,.02,.81-.05,.24-.06,.54-.19,.73-.37,.11-.11,.28-.29,.22-.47s-.24-.26-.42-.3l-3.73-.73c-.26-.05-.55-.02-.81,.05-.24,.06-.54,.19-.73,.37-.11,.11-.28,.29-.22,.47s.24,.26,.42,.3h0Z"/>
  <path class="cls-8" d="M239.16,361.51c.46,0,1.18-.1,1.54-.41,.26-.23,.38-.42-.11-.42-.46,0-1.18,.1-1.54,.41-.26,.23-.38,.42,.11,.42h0Z"/>
  <path class="cls-8" d="M240.34,347.07c.65,0,2.36-.97,.92-.97-.65,0-2.36,.97-.92,.97h0Z"/>
  <path class="cls-8" d="M223.09,338.05c-2.51-.67-5.02-1.34-7.53-2-.5-.13-1.08,0-1.53,.25-.21,.11-.74,.55-.24,.68l7.53,2c.5,.13,1.08,0,1.53-.25,.21-.11,.74-.55,.24-.68h0Z"/>
  <path class="cls-8" d="M203.44,333.1l-1.86-.74c-.22-.09-.48-.08-.71-.05-.27,.04-.59,.13-.82,.27l-.2,.13c-.1,.08-.18,.17-.22,.29-.03,.16,.05,.28,.21,.35l1.86,.74c.22,.09,.48,.08,.71,.05,.27-.04,.59-.13,.82-.27l.2-.13c.1-.08,.18-.17,.22-.29,.03-.16-.05-.28-.21-.35h0Z"/>
  <path class="cls-8" d="M179.05,341.29c1.84,2.75,4.72,4.71,7.78,5.85,.5,.19,1.09,.08,1.54-.2,.26-.16,.69-.68,.18-.87-2.98-1.11-5.71-2.97-7.49-5.64-.26-.39-1.11-.18-1.44-.03s-.85,.49-.57,.89h0Z"/>
  <path class="cls-8" d="M202.55,354.32l1.86,2.9c.12,.19,.41,.28,.62,.31,.27,.03,.61-.02,.86-.15,.41-.21,.81-.65,.51-1.12l-1.86-2.9c-.12-.19-.41-.28-.62-.31-.27-.03-.61,.02-.86,.15-.41,.21-.81,.65-.51,1.12h0Z"/>
  <path class="cls-8" d="M214.81,366.77l2.79,2.18c.18,.14,.52,.16,.73,.14,.27-.02,.6-.13,.82-.29,.17-.13,.37-.32,.39-.54s-.08-.36-.25-.5l-2.79-2.18c-.18-.14-.52-.16-.73-.14-.27,.02-.6,.13-.82,.29-.17,.13-.37,.32-.39,.54s.08,.36,.25,.5h0Z"/>
  <path class="cls-8" d="M151.34,369.17c-3.08-2.42-6.71-4.12-10.49-5.14-.52-.14-1.17,0-1.54,.41-.31,.36-.22,.86,.27,1,3.65,.99,7.09,2.61,10.07,4.95,.72,.56,2.64-.46,1.69-1.21h0Z"/>
  <path class="cls-8" d="M140.96,355.54c.93-1.21,1.87-2.42,2.8-3.63,.14-.18,.23-.4,.17-.63-.06-.21-.26-.39-.46-.46-.5-.17-1.2-.03-1.54,.41-.93,1.21-1.87,2.42-2.8,3.63-.14,.18-.23,.4-.17,.63,.06,.21,.26,.39,.46,.46,.5,.17,1.2,.03,1.54-.41h0Z"/>
  <path class="cls-8" d="M145.14,350.36l.91-2.18c.08-.2,.1-.4-.04-.58s-.4-.28-.61-.3c-.29-.02-.6,.02-.86,.15-.22,.11-.46,.27-.56,.5l-.91,2.18c-.08,.2-.1,.4,.04,.58s.4,.28,.61,.3c.29,.02,.6-.02,.86-.15,.22-.11,.46-.27,.56-.5h0Z"/>
  <path class="cls-8" d="M127.57,328.44h-2.79c-.3,0-.58,.03-.86,.16-.2,.09-.47,.27-.57,.48-.08,.18-.11,.39,.03,.55s.39,.27,.61,.27h2.79c.3,0,.58-.03,.86-.16,.2-.09,.47-.27,.57-.48,.08-.18,.11-.39-.03-.55s-.39-.27-.61-.27h0Z"/>
  <path class="cls-8" d="M98.11,320.62l-1.89-1.43c-.2-.15-.5-.2-.75-.19-.27,.02-.61,.13-.82,.3-.18,.15-.36,.36-.37,.61s.08,.44,.27,.58l1.89,1.43c.2,.15,.5,.2,.75,.19,.27-.02,.61-.13,.82-.3,.18-.15,.36-.36,.37-.61s-.08-.44-.27-.58h0Z"/>
  <path class="cls-8" d="M258.52,335.92c.92,.5,1.84,.99,2.76,1.49,.15,.08,.39,.06,.55,.05,.28-.03,.58-.1,.85-.19,.2-.08,.45-.16,.61-.31,.07-.07,.18-.19,.05-.27l-2.76-1.49c-.15-.08-.39-.06-.55-.05-.28,.03-.58,.1-.85,.19-.2,.08-.45,.16-.61,.31-.07,.07-.18,.19-.05,.27h0Z"/>
  <path class="cls-8" d="M272.95,342.04h.93c.14,0,.28-.02,.42-.05,.15-.03,.29-.07,.43-.12,.12-.04,.24-.1,.35-.18,.09-.05,.18-.12,.25-.2l.08-.14c.03-.1,0-.18-.07-.24l-.14-.08c-.14-.05-.29-.07-.43-.06h-.93c-.14,0-.28,.02-.42,.05-.15,.03-.29,.07-.43,.12-.12,.04-.24,.1-.35,.18-.09,.05-.18,.12-.25,.2l-.08,.14c-.03,.1,0,.18,.07,.24l.14,.08c.14,.05,.29,.07,.43,.06h0Z"/>
  <path class="cls-8" d="M282.54,351.03v2.18c-.02,.1,0,.2,.05,.28,.04,.1,.1,.17,.2,.22,.2,.13,.51,.17,.73,.15,.29-.03,.59-.12,.82-.29,.16-.13,.39-.32,.39-.55v-2.18c.02-.1,0-.2-.05-.28-.04-.1-.1-.17-.2-.22-.2-.13-.51-.17-.73-.15-.29,.03-.59,.12-.82,.29-.16,.13-.39,.32-.39,.55h0Z"/>
  <path class="cls-8" d="M278.29,359.37c-1.25,.23-2.49,.46-3.74,.69-.28,.05-.57,.13-.83,.26-.12,.06-.39,.19-.44,.34-.14,.37,.76,.24,.87,.22l3.74-.69c.28-.05,.57-.13,.83-.26,.12-.06,.39-.19,.44-.34,.14-.37-.76-.24-.87-.22h0Z"/>
  <path class="cls-8" d="M254.37,371.23c.45,0,1.24-.13,1.43-.63,.17-.45-.15-.77-.62-.77-.45,0-1.24,.13-1.43,.63-.17,.45,.15,.77,.62,.77h0Z"/>
  <path class="cls-8" d="M261.8,374.74l6.52,.7c.47,.05,1.17-.19,1.43-.59,.29-.45-.25-.61-.59-.64l-6.52-.7c-.47-.05-1.17,.19-1.43,.59-.29,.45,.25,.61,.59,.64h0Z"/>
  <path class="cls-8" d="M282.62,375.7h.93c.15,0,.3-.04,.44-.1,.14-.04,.27-.11,.38-.2,.11-.07,.19-.17,.25-.28,.07-.09,.11-.2,.12-.31l-.02-.22c-.04-.15-.13-.26-.25-.35l-.21-.11c-.17-.06-.35-.08-.53-.07h-.93c-.15,0-.3,.04-.44,.1-.14,.04-.27,.11-.38,.2-.11,.07-.19,.17-.25,.28-.07,.09-.11,.2-.12,.31l.02,.22c.04,.15,.13,.26,.25,.35l.21,.11c.17,.06,.35,.08,.53,.07h0Z"/>
  <path class="cls-8" d="M299.2,369.35c3.32-1.66,6.35-3.94,8.72-6.81,.33-.39-.28-.56-.57-.56-.49,0-1.12,.18-1.44,.57-2.19,2.65-4.98,4.72-8.04,6.25-.3,.15-.64,.56-.21,.77,.45,.22,1.13-.02,1.53-.22h0Z"/>
  <path class="cls-8" d="M312.99,354.34c.67,0,2.35-1,.91-1-.67,0-2.35,1-.91,1h0Z"/>
  <path class="cls-8" d="M327.17,348.43l.93-.73c.11-.06,.19-.14,.26-.24,.07-.07,.12-.16,.14-.27,.02-.1,0-.18-.05-.26-.04-.09-.1-.16-.19-.2l-.2-.08c-.17-.04-.35-.05-.52-.03l-.29,.05c-.19,.05-.36,.13-.53,.23l-.93,.73c-.11,.06-.19,.14-.26,.24-.07,.07-.12,.16-.14,.27-.02,.1,0,.18,.05,.26,.04,.09,.1,.16,.19,.2l.2,.08c.17,.04,.35,.05,.52,.03l.29-.05c.19-.05,.36-.13,.53-.23h0Z"/>
  <path class="cls-8" d="M365.31,357.79l.91,2.18c.03,.11,.08,.2,.17,.27,.08,.09,.17,.15,.29,.19,.25,.09,.58,.1,.83,.02s.54-.21,.71-.43c.12-.17,.26-.42,.17-.63l-.91-2.18c-.03-.11-.08-.2-.17-.27-.08-.09-.17-.15-.29-.19-.25-.09-.58-.1-.83-.02s-.54,.21-.71,.43c-.12,.17-.26,.42-.17,.63h0Z"/>
  <path class="cls-8" d="M365.8,373.63l-.93,.73c-.11,.08-.19,.17-.25,.28-.07,.09-.11,.2-.12,.32-.02,.12,0,.22,.06,.32,.04,.11,.11,.19,.21,.26l.21,.11c.17,.06,.35,.09,.53,.07l.3-.05c.19-.05,.36-.13,.52-.25l.93-.73c.11-.08,.19-.17,.25-.28,.07-.09,.11-.2,.12-.32,.02-.12,0-.22-.06-.32-.04-.11-.11-.19-.21-.26l-.21-.11c-.17-.06-.35-.09-.53-.07l-.3,.05c-.19,.05-.36,.13-.52,.25h0Z"/>
  <path class="cls-8" d="M348.34,377.95h-13.97c-.45,0-1.18,.16-1.44,.57s.23,.54,.56,.54h13.97c.45,0,1.18-.16,1.44-.57s-.23-.54-.56-.54h0Z"/>
  <path class="cls-8" d="M319.52,379.8c.38,0,1.27-.15,1.44-.57s-.14-.56-.57-.56c-.38,0-1.27,.15-1.44,.57s.14,.56,.57,.56h0Z"/>
  <path class="cls-8" d="M307.69,383.83l-3.74-2.89c-.17-.13-.53-.13-.72-.11-.27,.03-.6,.13-.82,.29-.16,.11-.38,.28-.4,.5s.07,.32,.24,.44l3.74,2.89c.17,.13,.53,.13,.72,.11,.27-.03,.6-.13,.82-.29,.16-.11,.38-.28,.4-.5s-.07-.32-.24-.44h0Z"/>
  <path class="cls-8" d="M326.07,363.93c.43,0,1.24-.14,1.43-.61,.18-.44-.15-.7-.61-.7s-1.24,.14-1.43,.61c-.18,.44,.15,.7,.61,.7h0Z"/>
  <path class="cls-8" d="M337.42,357.8l2.8-1.44c.15-.08,.38-.27,.42-.45,.04-.17-.07-.31-.22-.38-.49-.21-1.09-.02-1.54,.21l-2.8,1.44c-.15,.08-.38,.27-.42,.45-.04,.17,.07,.31,.22,.38,.49,.21,1.09,.02,1.54-.21h0Z"/>
  <path class="cls-8" d="M398.05,359.83l-.93,1.45c-.09,.13,.1,.23,.19,.26,.1,.03,.2,.04,.31,.03,.13,0,.26,0,.39-.03,.28-.05,.57-.13,.83-.26,.17-.09,.33-.19,.44-.36l.93-1.45c.09-.13-.1-.23-.19-.26-.1-.03-.2-.04-.31-.03-.13,0-.26,0-.39,.03-.28,.05-.57,.13-.83,.26-.17,.09-.33,.19-.44,.36h0Z"/>
  <path class="cls-8" d="M393.37,370.62v.73c-.02,.11,0,.2,.06,.28,.04,.1,.1,.17,.2,.23,.1,.07,.21,.11,.33,.12,.13,.04,.27,.04,.4,.03l.3-.05c.19-.05,.36-.13,.52-.24l.19-.17c.1-.11,.17-.24,.2-.38v-.73c.02-.11,0-.2-.06-.28-.04-.1-.1-.17-.2-.23-.1-.07-.21-.11-.33-.12-.13-.04-.27-.04-.4-.03l-.3,.05c-.19,.05-.36,.13-.52,.24l-.19,.17c-.1,.11-.17,.24-.2,.38h0Z"/>
  <path class="cls-8" d="M405.22,382.75c.4,0,1.26-.14,1.44-.59s-.14-.63-.59-.63c-.4,0-1.26,.14-1.44,.59s.14,.63,.59,.63h0Z"/>
  <path class="cls-8" d="M424.78,382.06c.43,0,1.24-.14,1.43-.61,.18-.44-.15-.7-.6-.7s-1.24,.14-1.43,.61c-.18,.44,.15,.7,.6,.7h0Z"/>
  <path class="cls-8" d="M435.37,371.39l.93-.73c.08-.05,.14-.13,.18-.21,.05-.06,.06-.13,.04-.21-.02-.08-.07-.13-.14-.16-.08-.06-.17-.09-.27-.09-.27-.04-.55,0-.81,.07s-.51,.18-.73,.35l-.93,.73c-.08,.05-.14,.13-.18,.21-.05,.06-.06,.13-.04,.21,.02,.08,.07,.13,.14,.16,.08,.06,.17,.09,.27,.09,.27,.04,.55,0,.81-.07s.51-.18,.73-.35h0Z"/>
  <path class="cls-8" d="M420.77,357.2c.47,0,1.18-.07,1.54-.41,.25-.24,.37-.51-.14-.51-.47,0-1.18,.07-1.54,.41-.25,.24-.37,.51,.14,.51h0Z"/>
  <path class="cls-8" d="M400.46,349.52h-8.38c-.5,0-1.16,.15-1.43,.62-.24,.44,.21,.76,.62,.76h8.38c.5,0,1.16-.15,1.43-.62,.24-.44-.21-.76-.62-.76h0Z"/>
  <path class="cls-8" d="M366.09,353.7c.39,0,1.27-.15,1.44-.58s-.14-.59-.58-.59c-.39,0-1.27,.15-1.44,.58s.14,.59,.58,.59h0Z"/>
  <path class="cls-8" d="M351.6,338.25l2.8,2.9c.13,.13,.41,.15,.58,.15,.28,0,.6-.07,.85-.18,.23-.1,.93-.45,.6-.79l-2.8-2.9c-.13-.13-.41-.15-.58-.15-.28,0-.6,.07-.85,.18-.23,.1-.93,.45-.6,.79h0Z"/>
  <path class="cls-8" d="M381,376.95c.4,0,1.26-.14,1.43-.59s-.14-.63-.59-.63c-.4,0-1.26,.14-1.43,.59s.14,.63,.59,.63h0Z"/>
  <path class="cls-8" d="M376.61,383.71v.73c-.02,.09,0,.18,.05,.25,.03,.09,.1,.15,.19,.19,.1,.06,.21,.09,.33,.1,.13,.03,.26,.03,.4,.01l.29-.06c.19-.05,.36-.13,.53-.23l.19-.15c.1-.09,.17-.21,.21-.34v-.73c.02-.09,0-.18-.05-.25-.03-.09-.1-.15-.19-.19-.1-.06-.21-.09-.33-.1-.13-.03-.26-.03-.4-.01l-.29,.06c-.19,.05-.36,.13-.53,.23l-.19,.15c-.1,.09-.17,.21-.21,.34h0Z"/>
  <path class="cls-8" d="M419.84,393.48c.47,0,1.18-.08,1.54-.41,.25-.23,.37-.49-.13-.49-.47,0-1.18,.08-1.54,.41-.25,.23-.37,.49,.13,.49h0Z"/>
  <path class="cls-8" d="M438.74,395.78h1.86c.28,0,.59-.07,.85-.17,.19-.08,.47-.22,.59-.41,.08-.13,.14-.29,0-.42-.15-.14-.39-.17-.58-.17h-1.86c-.28,0-.59,.07-.85,.17-.19,.08-.47,.22-.59,.41-.08,.13-.14,.29,0,.42,.15,.14,.39,.17,.58,.17h0Z"/>
  <path class="cls-8" d="M463.84,392.11l4.66-2.18c.31-.14,.9-.61,.55-.99s-1.04-.28-1.46-.09l-4.66,2.18c-.31,.14-.9,.61-.55,.99s1.04,.28,1.46,.09h0Z"/>
  <path class="cls-8" d="M459.25,371.22c.44,0,1.24-.13,1.43-.62,.17-.45-.15-.75-.62-.75-.44,0-1.24,.13-1.43,.62-.17,.45,.15,.75,.62,.75h0Z"/>
  <path class="cls-8" d="M441,358.58l-2.84-2.87c-.13-.13-.41-.15-.57-.15-.28,0-.6,.07-.85,.18-.22,.09-.93,.45-.6,.78l2.84,2.87c.13,.13,.41,.15,.57,.15,.28,0,.6-.07,.85-.18,.22-.09,.93-.45,.6-.78h0Z"/>
  <path class="cls-8" d="M433.16,350.1h.93c.29,0,.59-.06,.85-.17,.13-.05,.24-.11,.34-.2,.09-.06,.17-.13,.24-.23l.08-.16c.03-.11,0-.2-.08-.29l-.14-.1c-.14-.06-.29-.09-.44-.09h-.93c-.29,0-.59,.06-.85,.17-.13,.05-.24,.11-.34,.2-.09,.06-.17,.13-.24,.23l-.08,.16c-.03,.11,0,.2,.08,.29l.14,.1c.14,.06,.29,.09,.44,.09h0Z"/>
  <path class="cls-8" d="M476.33,359.01c1.26,0,1.65-1.64,.18-1.64-1.26,0-1.65,1.64-.18,1.64h0Z"/>
  <path class="cls-8" d="M488.39,367.37c2.06,1.7,3.78,3.82,4.79,6.31,.18,.43,.88,.36,1.23,.25,.26-.08,1.12-.41,.94-.84-1.05-2.58-2.81-4.82-4.95-6.58-.38-.31-1.02-.21-1.44-.02-.21,.1-.97,.55-.58,.87h0Z"/>
  <path class="cls-8" d="M493.24,384.11c-1.24,1.45-2.48,2.9-3.73,4.35-.12,.14-.26,.3-.21,.5,.05,.18,.26,.29,.43,.33,.27,.06,.55,.04,.81-.04,.25-.07,.55-.18,.72-.38,1.24-1.45,2.48-2.9,3.73-4.35,.12-.14,.26-.3,.21-.5-.05-.18-.26-.29-.43-.33-.27-.06-.55-.04-.81,.04-.25,.07-.55,.18-.72,.38h0Z"/>
  <path class="cls-8" d="M478.13,399.12v.73c.02,.07,.07,.11,.13,.13,.08,.05,.16,.07,.26,.07,.12,.01,.25,0,.37-.01,.14-.01,.29-.04,.43-.08l.29-.09c.16-.06,.31-.13,.45-.23l.15-.12c.07-.06,.11-.14,.1-.24v-.73c-.02-.07-.07-.11-.13-.13-.08-.05-.16-.07-.26-.07-.12-.01-.25,0-.37,.01-.14,.01-.29,.04-.43,.08l-.29,.09c-.16,.06-.31,.13-.45,.23l-.15,.12c-.07,.06-.11,.14-.1,.24h0Z"/>
  <path class="cls-8" d="M494.23,404.99c6.57,1.69,13.66,1.27,19.95-1.27,.3-.12,.84-.4,.6-.78-.22-.35-1.17-.08-1.43,.03-5.47,2.21-11.68,2.52-17.38,1.05-.51-.13-1.08-.04-1.53,.23-.21,.12-.74,.62-.22,.75h0Z"/>
  <path class="cls-8" d="M522.58,403.16c.45,0,1.24-.13,1.42-.63,.17-.45-.15-.78-.63-.78-.45,0-1.24,.13-1.42,.63-.17,.45,.15,.78,.63,.78h0Z"/>
  <path class="cls-8" d="M517.31,385.87c1.26,0,1.65-1.65,.18-1.65-1.26,0-1.65,1.65-.18,1.65h0Z"/>
  <path class="cls-8" d="M505.78,373.99c.38,0,1.27-.15,1.44-.57s-.14-.55-.56-.55c-.38,0-1.27,.15-1.44,.57s.14,.55,.56,.55h0Z"/>
  <path class="cls-8" d="M506.39,369v-.73c.02-.11,0-.21-.06-.31-.04-.1-.11-.19-.2-.25-.1-.07-.21-.12-.34-.14-.13-.04-.27-.05-.41-.04l-.3,.05c-.19,.05-.36,.13-.52,.25l-.19,.18c-.1,.12-.17,.25-.19,.41v.73c-.02,.11,0,.21,.06,.31,.04,.1,.11,.19,.2,.25,.1,.07,.21,.12,.34,.14,.13,.04,.27,.05,.41,.04l.3-.05c.19-.05,.36-.13,.52-.25l.19-.18c.1-.12,.17-.25,.19-.41h0Z"/>
  <path class="cls-8" d="M529.06,367.43c.71,0,2.34-1.06,.89-1.06-.71,0-2.34,1.06-.89,1.06h0Z"/>
  <path class="cls-8" d="M539.59,375.72v3.63c0,.21,.05,.34,.24,.45,.2,.12,.5,.14,.73,.11,.28-.04,.58-.12,.82-.29,.15-.11,.4-.3,.4-.51v-3.63c0-.21-.05-.34-.24-.45-.2-.12-.5-.14-.73-.11-.28,.04-.58,.12-.82,.29-.15,.11-.4,.3-.4,.51h0Z"/>
  <path class="cls-8" d="M536.81,391.75l-.93,1.45c-.03,.06-.02,.12,.02,.16,.03,.06,.09,.1,.17,.11,.1,.03,.2,.04,.31,.04,.13,0,.26,0,.39-.03,.28-.05,.57-.13,.83-.26l.2-.12c.1-.06,.18-.15,.23-.25l.93-1.45c.03-.06,.02-.12-.02-.16-.03-.06-.09-.1-.17-.11-.1-.03-.2-.04-.31-.04-.13,0-.26,0-.39,.03-.28,.05-.57,.13-.83,.26l-.2,.12c-.1,.06-.18,.15-.23,.25h0Z"/>
  <path class="cls-8" d="M540.23,405.88c.7,0,2.34-1.04,.9-1.04-.7,0-2.34,1.04-.9,1.04h0Z"/>
  <path class="cls-8" d="M551.05,399.42c.51-4.26-.15-8.55-1.85-12.49-.33-.76-2.47-.1-2.17,.58,1.66,3.84,2.34,8.01,1.85,12.17-.1,.87,2.09,.48,2.17-.27h0Z"/>
  <path class="cls-8" d="M547.68,382.64c.67,0,2.35-1,.91-1-.67,0-2.35,1-.91,1h0Z"/>
  <path class="cls-8" d="M105.92,368.79l-.93-2.18c-.09-.2-.23-.31-.44-.37-.25-.07-.57-.06-.82,.02s-.54,.19-.72,.4c-.12,.13-.28,.35-.2,.54l.93,2.18c.09,.2,.23,.31,.44,.37,.25,.07,.57,.06,.82-.02s.54-.19,.72-.4c.12-.13,.28-.35,.2-.54h0Z"/>
  <path class="cls-8" d="M104.05,355v-.73c-.03-.05-.07-.08-.12-.09-.08-.03-.16-.04-.25-.04-.12,0-.25,0-.37,.03-.14,.02-.29,.05-.43,.09l-.29,.09c-.16,.05-.31,.12-.46,.21l-.15,.11c-.07,.05-.11,.11-.11,.19v.73c.03,.05,.07,.08,.12,.09,.08,.03,.16,.04,.25,.04,.12,0,.25,0,.37-.03,.14-.02,.29-.05,.43-.09l.29-.09c.16-.05,.31-.12,.46-.21l.15-.11c.07-.05,.11-.11,.11-.19h0Z"/>
  <path class="cls-8" d="M93.24,348.66c.41,0,1.26-.14,1.43-.6s-.14-.66-.59-.66c-.41,0-1.26,.14-1.43,.6s.14,.66,.59,.66h0Z"/>
  <path class="cls-8" d="M78.04,339.51l-5.74-4.98c-.38-.33-1.02-.26-1.45-.06-.24,.11-.96,.59-.56,.93l5.74,4.98c.38,.33,1.02,.26,1.45,.06,.24-.11,.96-.59,.56-.93h0Z"/>
  <path class="cls-8" d="M65.81,333.46c-1.55,.97-3.1,1.94-4.66,2.9-.09,.06-.28,.21-.25,.35s.28,.18,.39,.18c.53,.03,1.09-.13,1.54-.41l4.66-2.9c.09-.06,.28-.21,.25-.35s-.28-.18-.39-.18c-.53-.03-1.09,.13-1.54,.41h0Z"/>
  <path class="cls-8" d="M49.73,352.68v1.45c.02,.08,.07,.14,.15,.18,.08,.06,.17,.1,.27,.11,.13,.03,.25,.03,.38,.02,.15,0,.29-.02,.43-.07,.25-.07,.53-.17,.73-.36l.14-.15c.07-.09,.1-.19,.08-.31v-1.45c-.02-.08-.07-.14-.15-.18-.08-.06-.17-.1-.27-.11-.13-.03-.25-.03-.38-.02-.15,0-.29,.02-.43,.07-.25,.07-.53,.17-.73,.36l-.14,.15c-.07,.09-.1,.19-.08,.31h0Z"/>
  <path class="cls-8" d="M52.76,358.5l-.93-.73c-.07-.06-.15-.1-.24-.12-.11-.04-.22-.05-.34-.05-.14,0-.28,.01-.42,.05-.15,.02-.29,.07-.43,.13l-.25,.12c-.13,.07-.25,.17-.34,.29l-.08,.15c-.03,.1,0,.19,.07,.27l.93,.73c.07,.06,.15,.1,.24,.12,.11,.04,.22,.05,.34,.05,.14,0,.28-.01,.42-.05,.15-.02,.29-.07,.43-.13l.25-.12c.13-.07,.25-.17,.34-.29l.08-.15c.03-.1,0-.19-.07-.27h0Z"/>
  <path class="cls-8" d="M26.16,353.67c.38,0,1.27-.15,1.44-.57s-.14-.55-.56-.55c-.38,0-1.27,.15-1.44,.57s.14,.55,.56,.55h0Z"/>
  <path class="cls-8" d="M15.02,343.63c.44,0,1.24-.13,1.43-.62,.17-.45-.15-.74-.62-.74s-1.24,.13-1.43,.62c-.17,.45,.15,.74,.62,.74h0Z"/>
  <path class="cls-8" d="M20.49,336.13l3.73-1.45c.2-.08,.46-.25,.58-.44,.09-.14,.12-.34-.01-.48-.36-.36-1.04-.2-1.45-.05l-3.73,1.45c-.2,.08-.46,.25-.58,.44-.09,.14-.12,.34,.01,.48,.36,.36,1.04,.2,1.45,.05h0Z"/>
  <path class="cls-8" d="M38.29,340.68c.41,0,1.26-.14,1.43-.6s-.14-.65-.59-.65c-.41,0-1.26,.14-1.43,.6s.14,.65,.59,.65h0Z"/>
  <path class="cls-8" d="M28.62,313.5c-1.76-2.34-3.08-4.99-3.82-7.83-.16-.6-2.33-.04-2.17,.58,.76,2.92,2.14,5.63,3.95,8.04,.36,.48,2.46-.23,2.03-.79h0Z"/>
  <path class="cls-8" d="M22.97,302.95l2.79,2.18c.19,.15,.51,.19,.74,.17,.27-.02,.6-.13,.82-.3,.17-.14,.37-.34,.38-.58s-.08-.4-.26-.55l-2.79-2.18c-.19-.15-.51-.19-.74-.17-.27,.02-.6,.13-.82,.3-.17,.14-.37,.34-.38,.58s.08,.4,.26,.55h0Z"/>
  <path class="cls-8" d="M15.01,326.18c.43,0,1.24-.14,1.43-.6s-.15-.68-.6-.68-1.24,.14-1.43,.6,.15,.68,.6,.68h0Z"/>
  <path class="cls-8" d="M78.36,310.1c2.48,.26,4.96,.52,7.44,.78,.47,.05,1.17-.18,1.43-.6,.28-.45-.25-.63-.6-.67-2.48-.26-4.96-.52-7.44-.78-.47-.05-1.17,.18-1.43,.6-.28,.45,.25,.63,.6,.67h0Z"/>
  <path class="cls-8" d="M100.41,312.22c.48,0,1.17-.07,1.54-.41,.26-.24,.36-.52-.14-.52-.48,0-1.17,.07-1.54,.41-.26,.24-.36,.52,.14,.52h0Z"/>
  <path class="cls-8" d="M146.64,319.78c1.23,0,1.68-1.55,.2-1.55-1.23,0-1.68,1.55-.2,1.55h0Z"/>
  <path class="cls-8" d="M123.55,318.96l-.93,.73c-.08,.04-.15,.1-.19,.18-.05,.04-.07,.1-.06,.16,.02,.06,.07,.1,.13,.11,.08,.04,.16,.06,.26,.06,.27,.01,.54-.03,.8-.1l.29-.09c.16-.06,.31-.13,.45-.22l.93-.73c.08-.04,.15-.1,.19-.18,.05-.04,.07-.1,.06-.16-.02-.06-.07-.1-.13-.11-.08-.04-.16-.06-.26-.06-.27-.01-.54,.03-.8,.1l-.29,.09c-.16,.06-.31,.13-.45,.22h0Z"/>
  <path class="cls-8" d="M116.51,320.35c.41,0,1.26-.14,1.43-.59s-.14-.64-.59-.64c-.41,0-1.26,.14-1.43,.59s.14,.64,.59,.64h0Z"/>
  <path class="cls-8" d="M117.9,314.44l2.79,.74c.23,.06,.46,.06,.7,.02,.27-.04,.59-.13,.83-.27,.15-.08,.39-.21,.43-.39,.03-.15-.05-.26-.2-.3l-2.79-.74c-.23-.06-.46-.06-.7-.02-.27,.04-.59,.13-.83,.27-.15,.08-.39,.21-.43,.39-.03,.15,.05,.26,.2,.3h0Z"/>
  <path class="cls-8" d="M141.11,331c3.3,2.75,6.59,5.49,9.89,8.24,.37,.3,1.03,.14,1.43-.02,.2-.08,.96-.49,.6-.8-3.3-2.75-6.59-5.49-9.89-8.24-.37-.3-1.03-.14-1.43,.02-.2,.08-.96,.49-.6,.8h0Z"/>
  <path class="cls-8" d="M159.35,349.37c.4,0,1.26-.15,1.44-.59s-.14-.62-.59-.62c-.4,0-1.26,.15-1.44,.59s.14,.62,.59,.62h0Z"/>
  <path class="cls-8" d="M169.01,365.87l.93,1.45c.07,.07,.15,.11,.24,.12,.11,.04,.22,.06,.34,.05,.14,0,.28-.01,.42-.05,.15-.02,.29-.07,.43-.13l.25-.12c.13-.07,.25-.17,.34-.29l.08-.15c.03-.11,0-.2-.07-.28l-.93-1.45c-.07-.07-.15-.11-.24-.12-.11-.04-.22-.06-.34-.05-.14,0-.28,.01-.42,.05-.15,.02-.29,.07-.43,.13l-.25,.12c-.13,.07-.25,.17-.34,.29l-.08,.15c-.03,.11,0,.2,.07,.28h0Z"/>
  <path class="cls-8" d="M179.86,373.39h9.31c.5,0,1.16-.15,1.43-.62,.25-.44-.21-.74-.62-.74h-9.31c-.5,0-1.16,.15-1.43,.62-.25,.44,.21,.74,.62,.74h0Z"/>
  <path class="cls-8" d="M226.04,348.26c-1.62-2.76-4.05-4.99-6.77-6.62-.47-.28-1.13-.17-1.56,.14-.34,.25-.6,.8-.13,1.08,2.63,1.57,4.91,3.69,6.46,6.34,.26,.44,1.1,.33,1.47,.14,.41-.21,.8-.61,.52-1.08h0Z"/>
  <path class="cls-8" d="M185.8,329.41l-5.52-2.98c-.18-.1-.52-.07-.71-.04-.27,.04-.59,.13-.82,.27-.29,.18-.66,.5-.22,.74,1.84,.99,3.68,1.98,5.52,2.98,.18,.1,.52,.07,.71,.04,.27-.04,.59-.13,.82-.27,.29-.18,.66-.5,.22-.74h0Z"/>
  <path class="cls-8" d="M228.13,328.34c.54,.19,1.07,.41,1.59,.66-.11-.06,.02,.01,.07,.04,.05,.03,.1,.06,.16,.08,.13,.07,.26,.14,.38,.22,.24,.14,.47,.29,.7,.45,.92,.64,1.52,1.19,2.18,2.07,.32,.43,1.05,.4,1.48,.17,.38-.2,.85-.68,.51-1.13-1.45-1.91-3.56-3.26-5.81-4.04-.5-.17-1.21-.02-1.54,.41-.3,.4-.22,.89,.29,1.07h0Z"/>
  <path class="cls-8" d="M241.82,339.22l.93,.73c.1,.07,.21,.11,.33,.13,.13,.04,.27,.05,.4,.03,.15,0,.3-.04,.44-.1,.14-.04,.27-.11,.38-.19l.19-.17c.1-.11,.17-.24,.19-.39v-.2c-.05-.14-.14-.25-.26-.32l-.93-.73c-.1-.07-.21-.11-.33-.13-.13-.04-.27-.05-.4-.03-.15,0-.3,.04-.44,.1-.14,.04-.27,.11-.38,.19l-.19,.17c-.1,.11-.17,.24-.19,.39v.2c.05,.14,.14,.25,.26,.32h0Z"/>
  <path class="cls-8" d="M256.21,351.56c.41,0,1.26-.14,1.43-.6s-.14-.66-.59-.66c-.41,0-1.26,.14-1.43,.6s.14,.66,.59,.66h0Z"/>
  <path class="cls-8" d="M262.12,359.27l.93,.73c.07,.03,.14,.05,.22,.05,.11,.01,.22,0,.32,0,.14-.01,.28-.04,.41-.07,.15-.03,.29-.07,.43-.12l.25-.1c.13-.05,.25-.12,.36-.21l.09-.1c.04-.06,.02-.12-.04-.15l-.93-.73c-.07-.03-.14-.05-.22-.05-.11-.01-.22,0-.32,0-.14,.01-.28,.04-.41,.07-.15,.03-.29,.07-.43,.12l-.25,.1c-.13,.05-.25,.12-.36,.21l-.09,.1c-.04,.06-.02,.12,.04,.15h0Z"/>
  <path class="cls-8" d="M298.76,348.61c.98-2.59,1.27-5.39,.82-8.12-.1-.58-2.28-.08-2.17,.58,.44,2.66,.15,5.35-.8,7.87-.16,.42,.71,.35,.9,.33,.38-.06,1.1-.23,1.26-.66h0Z"/>
  <path class="cls-8" d="M297.17,337.7c.38,0,1.27-.15,1.44-.57s-.14-.54-.56-.54c-.38,0-1.27,.15-1.44,.57s.14,.54,.56,.54h0Z"/>
  <path class="cls-8" d="M308.39,336.41c.45,0,1.23-.13,1.42-.63,.17-.45-.15-.79-.63-.79-.45,0-1.23,.13-1.42,.63-.17,.45,.15,.79,.63,.79h0Z"/>
  <path class="cls-8" d="M319.25,337.58c.46,0,1.18-.09,1.54-.41,.26-.23,.37-.46-.12-.46-.46,0-1.18,.09-1.54,.41-.26,.23-.37,.46,.12,.46h0Z"/>
  <path class="cls-2" d="M423.8,164.65c-3.13,1.18,35.67,47.02-21.01,43.73-18.52,0-33.51,3.04-33.51,3.53-40.81,16.67-75.25-12.03-78.7-12.48-24.06,17.67-110.13,14.61-118.75,.34-81.94,21.29-62.4-26.7-62.4-59.69-2.56-3.63,24.52-50.73,46.25-50.8,2.5,.83,8.24-6.7,16.14-7.26,76.69-10.95,47.77-32.89,51.22-50.07,6.52-15.6,24.95-29.26,47.04-31.2,23.27,0,3.26,15.59,25.91,27.82,24.41,15.79,17.38,30.48,35.08,37.49,35.7,19.07,47.97,18.94,59.63,38.15,5.45,9.71,35.24,39.09,33.09,60.45"/>
  <path class="cls-5" d="M170.01,200.94c32.61-32.14,.46-69.86,39.13-69.88"/>
  <path class="cls-9" d="M314.06,95.14c9.81,5.14,21.24,6.75,30.07,13.74,4.41,3.5,6.5,6.37,12.26,6.96,3.43,.35,6.61-.34,9.97,.99,8.55,3.38,9.91,12.7,5.47,19.99-4.4,7.24-13.78,11.9-21.04,15.75-10.13,5.37-20.92,7.63-31.81,10.79-5.18,1.5-9.41,4.1-13.23,7.26-1.24,1.38-2.74,2.62-4.28,3.88-2.72,2.7-5.32,5.63-8,8.58-1.04,1.14,.57,5.22-.63,5.75-1.43,4.46-1.96,5.83-2.55,7.57,8.39,5.73,16.71,10.01,30.96,15.31,14.2,5.28,22.9,4.38,35.59,1.81,18.05-3.66,26-5.17,32.81-6.17,11.53-1.68,26.53,2.77,35.75-2.95,1.22-.75,2.58-.77,3.74-.8,10.61-12.05-9.18-36.42-6.91-37.27,2.15-21.35-27.65-50.73-33.09-60.45-11.66-19.2-23.93-19.07-59.63-38.15-17.69-7.01-10.67-21.71-35.08-37.49-16.87-9.11-10.08-20.08-15.13-25.08-.14,.39-.3,.76-.5,1.12-1.94,8.96-5.2,17.91-5.8,27.02-.51,7.76,1.38,15.3,1.14,23.06,12.8,13.54,22.45,29.65,39.9,38.79Z"/>
  <path class="cls-2" d="M109.31,138.75c5.96,19.36,49.96-10.36,64.9-28.65"/>
  <path class="cls-5" d="M275.55,2.74c-61.88,45.01,10.63,87.64-9.41,98.31"/>
  <path class="cls-5" d="M288.76,200.6c17.69-28.54-7.67-60.94,17.69-69.54"/>
  <path class="cls-5" d="M275.55,2.74c-24.97,37.26,32.41,44.36,22.06,56.49"/>
  <path class="cls-5" d="M423.8,164.65c-21.37-13.84-65.12,16.1-94.33,5.98"/>
</svg>