<?xml version="1.0" encoding="UTF-8"?>
<svg id="Layer_1" data-name="Layer 1" xmlns="http://www.w3.org/2000/svg" viewBox="0 0 500.55 400.39">
  <defs>
    <style>
      .cls-1 {
        fill: #f15a29;
      }

      .cls-2 {
        fill: #9e1f63;
      }

      .cls-3 {
        fill: #efb11e;
      }

      .cls-4 {
        fill: #3d7360;
      }

      .cls-5 {
        fill: #f47c5f;
      }

      .cls-6 {
        fill: #913995;
      }

      .cls-7 {
        fill: #00a79d;
      }

      .cls-8 {
        fill: #ef3a52;
      }

      .cls-9 {
        fill: #890d19;
      }

      .cls-10 {
        fill: #f7941d;
      }

      .cls-11 {
        fill: #e68a1b;
      }

      .cls-12 {
        fill: #ef4136;
      }

      .cls-13 {
        fill: #6ca84d;
      }

      .cls-14 {
        fill: #501b73;
      }
    </style>
  </defs>
  <g>
    <path class="cls-2" d="M254.74,279.96c-.09,2.6,0,4.18,.02,5.06,.07,6.41-3.91,17.75-11.85,25.8-4.74,4.82-9.43,6.27-17.36,10.34-2.21,1.14-8.57,4.31-17.47,7.07-6.67,2.07-11.5,2.89-20.01,4.34-11.2,1.91-19.72,2.6-22.71,2.83-6.18,.46-10.76,.56-17.21,.69-8.7,.18-8.38-.07-18.9,.06-10.27,.13-12.31,.39-18.97,.17-4.51-.15-7.82-.26-12.37-.83-1.83-.23-9.23,.18-18.56-2.62-5.41-1.63-8.82-4.1-13.6-6.61-5.23-2.76-8.35-4.4-11.14-7.92-1.76-2.22-3.27-2.03-5.55-5.63-1.41-2.23-2.62-2.71-4.12-4.63-.7-.9-2.14-2.78-2.61-5.5-.31-1.79-.07-3.57,.41-7.13,.06-.45,.1-.64,.31-2.02,.58-3.85,.55-3.98,.63-4.16,2.04-4.18,25.16,3.54,25.16,3.54,17.86,7.78,43.29,2.04,83.38,7.07,20.06,2.51,32.25-2.86,51.1-5.89,21.6-3.47,29.05-5.97,36.26-11.5,6.84-5.24,13.84-13.49,15.63-12.18,.86,.63-.26,2.88-.49,9.65Z"/>
    <path class="cls-14" d="M254.84,279.96c-.13,2.59,.2,5.17-.12,7.75-.34,2.57-1.02,5.09-1.89,7.53-2.72,7.24-7.05,14.15-13.26,18.9-4.23,3.05-9.1,4.96-13.64,7.43-11.45,6.17-24.15,9.78-36.95,11.72-15.3,2.82-30.88,3.72-46.42,3.56-14.86-.51-29.75,.79-44.56-.99-5.8-.23-11.66-.68-17.28-2.28-5.07-1.21-9.61-3.96-14.1-6.46-2.27-1.22-4.59-2.37-6.81-3.74-2.22-1.33-4.27-3.16-5.86-5.17-.81-.92-1.93-1.53-2.95-2.44-1.02-.88-1.82-2.01-2.51-3.08-1.44-2.08-3.8-3.58-5.07-5.86-1.47-2.25-2.04-5.13-1.7-7.77,.29-3.24,.87-6.44,1.27-9.64,1.29-5.44,21.9,1.38,25.92,2.52,5.6,2.33,11.6,3.41,17.69,3.9,8.82,.73,21.91,.56,30.91,.69,10.35,.14,20.71,.74,31.02,1.89l3.86,.46c8.88,1.15,17.88,.66,26.68-.97,5.05-.89,10.09-2.04,15.17-3.05,10.14-2.04,20.45-2.94,30.43-5.65,4.95-1.34,9.77-3.25,13.92-6.3,4.2-2.97,7.83-6.69,11.73-10.07,1.5-1.32,6.06-5.21,5.29-.55-.38,2.56-.68,5.12-.77,7.7h0Zm-.2,0c.03-2.91,.5-5.79,.77-8.67,.02-2.74-4.07,1.16-4.87,1.8-3.85,3.43-7.48,7.13-11.63,10.26-4.13,3.19-9.03,5.27-14,6.74-9.94,2.94-20.27,4.21-30.34,6.39-5.04,1.08-10.06,2.31-15.16,3.29-8.9,1.83-18.23,2.26-27.28,1.13,0,0-3.83-.45-3.83-.45-14.79-1.71-31.35-1.9-46.32-2.09-11.15-.29-22.75-.22-33.24-4.67-3.91-1.31-22.05-7.19-24.44-4.06-.43,3.16-1.07,6.39-1.4,9.54-.34,2.51,.1,4.94,1.43,7.09,1.27,2.31,3.49,3.68,4.95,5.89,.69,1.11,1.39,2.11,2.32,2.94,.89,.83,2.07,1.5,2.97,2.54,1.6,2.07,3.42,3.74,5.62,5.11,2.16,1.36,4.47,2.52,6.75,3.76,4.49,2.53,8.88,5.25,13.93,6.49,5.6,1.62,11.41,1.96,17.21,2.17,14.76,1.72,29.66,.03,44.47,.29,20.56-.14,41.22-2.16,61.26-6.8,10.02-2.45,19.4-6.84,28.62-11.35,9.67-3.92,16.52-12.53,20.07-22.16,.89-2.41,1.58-4.9,1.94-7.45,.35-2.56,.04-5.15,.19-7.73h0Z"/>
  </g>
  <g>
    <path class="cls-6" d="M138.45,208.8c-26.12,2.55-28.04,1.87-36.46,3-17.3,2.33-29.45,8.53-53.75,20.94-2.96,1.51-7.39,3.85-11.12,8.66-.58,.75-6.77,8.95-6.51,19.59,.12,4.99-.72,7.68,.93,10.16,.67,1.01,1.94,2.39,1.47,3.32-.42,.84-1.73,.33-2.97,1.2-1.78,1.24-2.15,4.42-1.46,6.72,.52,1.75,1.19,1.45,3.17,4.79,1.46,2.47,1.36,3.08,2.59,4.4,.87,.93,2.32,2.49,4.1,2.39,1.75-.1,1.95-1.7,4.02-2.01,2.06-.31,3.79,1,3.94,1.12,1.82,1.42,1.24,3.03,2.67,3.78,1.59,.85,2.71-.96,5.75-.85,2.06,.07,2.05,.92,5.72,1.97,.62,.18,2.36,.47,5.83,1.04,4.87,.8,5.55,.85,6.53,.5,1.71-.62,2.18-1.68,3.32-1.47,1.34,.24,1.34,1.81,2.61,2.99,2.47,2.28,6.14-.25,13.28,.47,2.71,.27,2.06,.62,5.36,1.06,5.99,.79,7.3-.47,12.09-.07,7.05,.59,7.14,3.56,11.73,2.79,4.4-.74,6.59-3.84,9.19-2.62,1.82,.85,1.24,2.6,3.04,3.28,2.13,.8,5.49-.67,9.48-2.43,.33-.14,.97-.43,1.77-.33,1.26,.16,1.72,1.15,2.81,2,1.98,1.53,5.11,1.88,6.14,.76,.78-.84,.09-2.23,.66-2.51,.81-.39,1.9,2.45,4.12,2.86,2.57,.48,3.7-2.87,6.94-2.79,2.3,.06,2.3,1.77,4.81,2.01,3.35,.32,4.45-2.6,7.68-2.11,2.18,.34,2.61,1.82,4.17,1.46,1.9-.43,1.84-2.75,3.82-3.29,1.84-.5,2.7,1.29,4.61,.81,1.92-.48,1.69-2.46,3.71-3.31,2.32-.97,3.55,1.25,6.4,.56,2.64-.64,2.78-2.85,5.2-3,2.01-.13,2.41,1.36,4.22,1.11,2.42-.33,2.53-3.1,4.91-3.51,2.3-.4,3.74,1.93,5.27,1.13,1.15-.61,.6-2.06,1.77-2.84,1.8-1.21,4.18,1.55,6.52,.57,2.07-.86,1.33-3.5,3.55-4.85,2.07-1.27,3.74,.41,7.16,.18,3.93-.26,6.75-2.82,9.35-5.19,4.24-3.86,3.95-6.31,7.31-8.62,.49-.34,1.77-1.17,2.21-2.67,.31-1.04,0-1.7-.02-2.71-.03-2.4,1.66-4.12,2.13-4.8,2.33-3.37-2.22-14.4-12.01-25.5-3.57-4.04-8.74-9.81-17.75-15.27-9.11-5.52-17.55-7.44-34.05-11.06-14.21-3.11-28.7-6.18-47.17-4.92-2.55,.17-1.2,.16-10.77,1.09Z"/>
    <path class="cls-14" d="M138.46,208.9c-5.99,.61-11.99,1.17-17.99,1.64-5.99,.52-12.03,.61-17.99,1.47-11.97,1.57-23.24,6-34,11.32-5.4,2.63-10.73,5.44-16.09,8.18-5.31,2.67-10.68,5.33-14.33,10.12-3.89,5.21-6.44,11.74-6.57,18.29,.03,2.22-.07,4.6-.13,6.76-.02,1.46,.12,2.81,.82,3.89,.67,1.15,2.33,2.67,1.57,4.3-.54,1.18-2.11,.87-2.95,1.32-1.68,.94-1.92,3.33-1.67,5.16,.16,1.59,1.07,2.31,2,3.56,2.15,2.79,2.94,7.05,6.53,8.35,1.64,.47,2.11-.9,3.57-1.56,2.38-.98,5.35,.12,6.67,2.28,.44,.74,.59,1.55,.92,2,.97,1.23,2.27,.19,3.55-.13,.77-.22,1.58-.34,2.38-.31,1.62-.04,2.93,1.02,4.37,1.52,2.79,.98,5.83,1.24,8.75,1.82,1.4,.19,2.98,.58,4.36,.44,1.51-.14,2.65-2.05,4.27-1.56,1.55,.56,1.62,2.64,3,3.38,1.15,.76,2.72,.54,4.18,.39,2.99-.41,6.06-.65,9.08-.24,2.92,.64,5.85,1.37,8.87,1.22,2.98-.12,6.05-.72,9.06-.22,1.52,.19,3.03,.57,4.44,1.18,1.42,.59,2.69,1.43,4.1,1.56,1.41,.13,2.88-.21,4.24-.72,2.1-.69,4.08-2.68,6.52-2.23,.83,.18,1.62,.73,2.05,1.47,.43,.72,.64,1.39,1.13,1.73,.49,.35,1.18,.48,1.87,.44,2.12-.14,4.26-1.15,6.25-1.99,1.45-.65,3.18-1.66,4.74-.61,.75,.51,1.19,1.12,1.73,1.54,1.38,1.09,3.98,1.98,5.5,.92,.42-.54,.18-1.05,.28-1.85,.12-1,1.27-1.12,1.81-.57,5.07,6.01,5.06-.52,10.36-.28,.88,.02,1.83,.52,2.41,1.01,1.08,.93,2.31,1.16,3.62,.84,1.42-.38,2.54-1.47,4.07-1.89,1.64-.52,3.6,.03,4.88,.97,1.22,.82,1.89,.14,2.63-1.01,.84-1.63,2.97-2.69,4.8-1.74,.77,.35,1.29,.62,1.78,.59,.51-.03,.98-.23,1.31-.66,1.48-2.6,3.6-3.77,6.55-2.46,1.28,.5,2.45,.51,3.6-.12,1.23-.75,2.24-2.45,3.99-2.61,.9-.17,1.98,.03,2.76,.48,.78,.43,1.13,.64,1.62,.6,1.83-.14,2.29-2.49,4.03-3.21,1.27-.66,3-.37,4.09,.24,.89,.4,1.48,.94,2.02,.56,.27-.39,.36-1.22,.74-1.85,.29-.5,.77-.89,1.3-1.12,1.69-.71,3.43,.49,4.92,.79,1.22,.29,2-.36,2.34-1.47,.41-1.56,1.68-3.49,3.5-3.89,2.47-.52,4.57,.91,6.85,.47,2.71-.27,5.06-1.97,7.25-3.93,2.39-1.97,3.96-4.04,5.59-6.71,.67-1,1.56-1.97,2.55-2.69,.88-.6,1.6-1.12,2.03-1.99,.24-.54,.29-.93,.19-1.63-.46-2.05,.48-4.41,1.79-5.99,0,0,.34-.44,.34-.44,.1-.12,.14-.22,.2-.32,.67-1.78,.06-3.95-.54-5.82-2.49-6.96-6.98-13.07-11.82-18.61-5.8-6.79-12.69-12.65-20.61-16.81-10.66-5.46-22.76-7.45-34.34-10.25-11.72-2.69-23.64-4.73-35.69-4.58-6.03-.04-12,.74-18,1.3h0Zm-.02-.2c5.99-.61,11.98-1.44,18.01-1.45,12.08-.19,24.1,1.57,35.89,4.02,19.22,4.01,34.78,6.04,49.89,20.1,6.67,6.27,12.66,13.34,16.82,21.53,1.61,3.54,4.43,9.26,1.5,12.77-1.07,1.33-1.67,2.73-1.36,4.47,.51,3.1-1.69,4.57-3.8,6.2-1.59,1.54-2.39,3.58-3.91,5.35-4.2,4.8-9.8,9.41-16.53,7.26-2.16-.64-3.28,.55-3.89,2.54-.32,.84-.84,1.81-1.72,2.29-.91,.53-2.03,.61-2.9,.41-1.39-.21-2.49-1.17-3.76-.94-.35,.17-.45,.32-.68,1.15-.73,2.63-3.07,2.4-4.99,1.19-2.31-1.27-3.14,.34-4.55,1.92-1.38,1.46-3.66,1.5-5.21,.36-.55-.3-1.01-.38-1.61-.3-1.4,.21-2,1.68-3.37,2.37-1.51,.9-3.59,.89-5.11,.23-1.29-.52-2.3-.74-3.32,.16-.43,.36-.72,.98-1.29,1.7-.6,.75-1.62,1.27-2.61,1.26-1.71,.09-2.6-1.39-4.03-.87-1.31,.57-1.53,2.47-3.21,3.06-.86,.41-2.15,.13-2.84-.42-1.14-.81-2.33-1.19-3.64-.84-1.39,.38-2.59,1.51-4.12,1.85-1.64,.44-3.63-.04-4.83-1.15-.58-.47-1.02-.71-1.67-.75-1.3-.13-2.45,.52-3.63,1.47-.61,.44-1.27,.98-2.19,1.2-.92,.24-1.9,.02-2.64-.43-1.07-.6-1.74-1.61-2.54-2.36-.11-.11-.17-.07-.03-.08,.14-.02,.2-.21,.16-.1,.49,4.54-5.27,3.61-7.67,1.56-2.31-2.36-2.5-2.12-5.37-.85-13.29,5.96-7.61-3.46-13.86-1.54-4.87,2.35-7.79,4.04-12.98,1.01-4.18-1.91-8.77-1.26-13.21-.96-4.57,.26-8.84-1.85-13.41-1.42-3.55-.05-8.61,2.3-10.69-1.81-.38-.67-.69-1.34-1.25-1.48-.67-.22-1.19,.25-1.75,.62-.65,.43-1.35,.82-2.19,.98-3.11,.14-6.03-.75-9.09-1.16-2.24-.31-4.54-.81-6.56-1.91-1.27-.66-2.72-.57-4.05-.18-1.05,.29-2.35,1.17-3.58,.66-1.24-.36-1.69-2.1-2.14-2.92-.98-1.58-3.44-2.5-5.2-1.73-.57,.25-.99,.77-1.73,1.29-3.23,1.91-6.57-1.94-7.8-4.57-.65-1.31-1.41-2.59-2.26-3.75-.94-1.14-2.24-2.57-2.34-4.18-.39-2.4,.02-5.58,2.46-6.88,.55-.35,1.71-.42,2.17-.59,.05-.03,.02,0,.03-.02,0-.02,.02-.04,0-.11-.13-.9-1.01-1.6-1.53-2.53-1.9-3.14-.76-7-1.01-10.41-.12-7.39,2.46-14.66,6.96-20.5,3.81-4.94,9.55-7.79,14.97-10.43,10.79-5.37,21.58-10.9,33.06-14.7,8.61-2.89,17.65-4.25,26.69-4.64,9.02-.47,18.02-1.21,27.01-2.06h0Z"/>
  </g>
  <g>
    <path class="cls-6" d="M253.49,295.74c-3.7,.42-3.65,6.7-8.25,13.33-4.12,5.94-9.68,8.67-20.82,14.12-7.49,3.67-13.62,5.69-16.1,6.47-18.06,5.71-33.59,6.57-51.76,7.45-6.18,.3-15.51,.35-34.18,.46-18.95,.11-21.56-.12-23.73-.36-9.38-1.04-23.4-2.75-36.89-11.88-5.9-3.99-9.7-6.57-12.67-11.69-3.69-6.37-3.9-12.89-7.28-13.38-1.33-.19-2.73,.82-5.53,2.84-2.03,1.47-4.41,3.19-4.14,4.9,.23,1.46,2.2,1.62,2.23,2.87,.04,1.55-2.98,1.73-4.05,4.2-.93,2.15,.2,4.63,.7,5.74,1.05,2.31,2.18,2.53,3.22,4.4,1.52,2.75,.9,5.56,.73,7.39-.52,5.53,2.27,10.39,5.34,15.73,3.88,6.74,10.09,11.06,18.38,14.99,19.05,9.05,38.53,11.04,47.95,11.84,24.05,2.05,40.95,3.5,64.69,.27,35.75-4.86,54.72-15.91,58.77-18.35,9.88-5.95,15.68-11.75,19.77-17.08,4.72-6.13,9.49-11.51,10.15-19.21,.31-3.54-.48-4.29-.1-11.02,.29-5.18,.93-7.64-.67-10.26-1.06-1.75-3.41-4.04-5.77-3.78Z"/>
    <path class="cls-14" d="M253.5,295.84c-1.51,.18-2.46,1.56-3.06,2.88-.64,1.35-1.16,2.77-1.74,4.16-1.15,2.78-2.58,5.49-4.5,7.84-3.83,4.77-9.46,7.51-14.77,10.29-24.29,13.56-51.47,16.71-78.82,17.08-5.72,.06-21.2,.23-27.12,.3-21.1,.29-43.08-.08-61.25-12.3-4.99-3.34-10.31-6.76-13.33-12.14-2.43-3.82-3.09-8.55-5.48-12.3-2.17-2.78-5.21,.69-7.29,1.97-1.19,.89-2.44,1.77-3.25,2.93-.39,.57-.57,1.24-.29,1.77,.39,.86,2.3,1.35,2.11,2.71-.2,1.35-1.74,1.75-2.59,2.46-1.19,.81-1.85,2.13-1.77,3.54,.16,2.07,1.09,4.26,2.56,5.81,1.75,1.57,2.8,3.97,2.8,6.32,.06,1.58-.29,3.09-.3,4.52-.03,4.48,2.08,8.52,4.28,12.37,4.06,8.16,11.78,13.25,19.95,16.86,21.92,10.24,46.46,11.52,70.25,12.96,29.83,1.69,60.31-2.3,88.07-13.6,12.35-5.18,24.1-12.63,32.26-23.42,6.27-7.74,10.81-13.64,9.41-24.19-.35-4.47,1.04-9.09,.2-13.47-.84-2.64-3.41-5.46-6.35-5.36h0Zm-.02-.2c3.14-.13,5.68,2.72,6.64,5.48,.91,4.46-.47,9.02-.08,13.53,1.44,10.64-2.91,16.72-9.14,24.71-8.07,11.08-19.8,19.02-32.25,24.44-16.67,7.27-34.59,11.25-52.6,13.32-18.05,2.18-36.25,1.14-54.27-.53-18.05-1.27-36.3-4.41-52.75-12.29-8.22-3.72-16.32-9.25-20.35-17.66-2.19-3.93-4.38-8.31-4.26-12.98,.04-1.59,.4-3.04,.36-4.48,.03-2.22-.87-4.21-2.47-5.73-1.58-1.73-2.55-4.01-2.71-6.39-.14-2.76,1.95-4.14,3.99-5.4,1.47-1.35-1.04-1.76-1.58-3.01-.95-2.53,2.17-4.28,3.77-5.57,1.9-1.17,3.68-3.24,6.13-3.12,2.53,.51,3.2,3.47,4.03,5.46,.99,2.84,2.03,5.66,3.55,8.22,3.01,5.27,8.26,8.56,13.2,11.84,12.56,8.27,27.95,11.1,42.78,11.38,18.03,0,36.08-.39,54.12-.75,24.19-.75,48.03-4.04,69.64-15.56,5.33-2.64,10.91-5.35,14.75-10.03,1.91-2.31,3.34-4.97,4.51-7.74,1.33-2.5,1.77-6.5,5.03-7.14h0Z"/>
  </g>
  <path class="cls-14" d="M242.95,300.24c-4.05-.94-7.91-2.26-12.02-2.71-2.77-.12-5.36,1.21-7.86,2.2-3.76,1.77-7.18,3.7-10.84,5.86l-.14-.15c3.67-5.43,10.21-8.46,16.69-8.43,3.56-.21,7.28-1,10.63,.7,1.32,.59,2.58,1.33,3.63,2.34l-.1,.18h0Z"/>
  <path class="cls-14" d="M230.19,312.27c-3.46,2.28-7.44,3.2-11.45,3.85-3.86,1.17-7.38,3.31-11.29,4.35-2.59,.72-5.22,1.31-7.97,1.5l-.06-.19c3.55-2.09,7.31-3.49,11.26-4.44,2.58-.74,5.35-.87,7.87-1.83,2.47-1.07,4.85-2.4,7.54-2.85,1.32-.28,2.65-.53,4.04-.57l.06,.19h0Z"/>
  <path class="cls-14" d="M193.13,310.45c-6.31,.91-12.6,.82-18.93,.96-4.21,.32-8.25,1.73-12.32,2.68-6.12,1.63-12.11,3.25-18.34,4.64,0,0-.07-.19-.07-.19,5.58-3.15,11.72-5.2,18.01-6.29,4.16-.86,8.46-.84,12.65-1.49,4.17-.77,8.39-1.58,12.66-1.26,2.12,.1,4.25,.29,6.35,.75v.2h0Z"/>
  <path class="cls-14" d="M150.09,329.57c-5.16,1.72-10.7,1.17-15.78-.48-3.43-.85-7.03-1.27-10.33-2.64-5.01-1.9-9.58-5.12-12.87-9.35,0,0,.13-.15,.13-.15,4.51,2.81,8.83,5.4,13.5,7.77,3.13,1.46,6.23,3.2,9.69,3.73,3.45,.44,6.92,.2,10.38,.55,1.73,.11,3.46,.17,5.25,.36l.02,.2h0Z"/>
  <path class="cls-14" d="M107.74,325.76c-5.26-4.68-10.48-9.36-16.47-13.06-4.1-2.29-8.84-3.12-13.4-3.91-6.96-1.02-13.83-.98-20.9-.24l-.05-.19c11.95-4.61,23.66-2.06,34.64,3.77,4.38,1.89,8.67,4.28,11.95,7.83,1.67,1.72,3.19,3.6,4.38,5.68l-.16,.13h0Z"/>
  <g>
    <path class="cls-6" d="M117.23,292.6c9.56,1.64,21.16,2.85,34.33,2.57,18.24-.38,33.66-3.48,45.31-6.77"/>
    <path class="cls-14" d="M117.24,292.5c10.04,.57,19.97,1.77,29.99,2.38,6.69,.18,13.34-.89,19.96-1.67,9.94-1.37,19.73-3.07,29.64-4.91,0,0,.05,.19,.05,.19-9.43,3.63-19.42,5.77-29.49,6.59-6.7,.68-13.45,.3-20.17,.45-6.72,.26-13.49,.4-20.15-.74-3.33-.49-6.63-1.18-9.88-2.1l.03-.2h0Z"/>
  </g>
  <g>
    <path class="cls-6" d="M203.41,287c3.91,.15,9.53-.12,15.88-2.1,3.87-1.21,7.07-2.76,9.58-4.2"/>
    <path class="cls-14" d="M203.41,286.9c3.26-1.01,6.53-.9,9.87-.88,2.2-.22,4.17-1.44,6.21-2.17,3.07-1.29,6.01-2.39,9.33-3.23,0,0,.1,.17,.1,.17-2.41,2.47-5.52,4.08-8.85,4.86-2.17,.63-4.5,.47-6.68,1.01-2.14,.66-4.34,1.43-6.63,1.13-1.13-.09-2.25-.26-3.35-.68v-.2h0Z"/>
  </g>
  <g>
    <path class="cls-6" d="M109.52,292.13c-3.07,.82-7.6,1.67-13.08,1.4-5.96-.29-10.71-1.8-13.78-3.04"/>
    <path class="cls-14" d="M109.55,292.23c-3.03,2-6.7,2.19-10.16,1.67-2.31-.11-4.65,.46-6.97,.2-3.51-.21-6.96-1.36-9.8-3.5,0,0,.07-.19,.07-.19,3.49,.41,6.65,1.05,9.99,1.82,2.19,.39,4.42,1.23,6.69,1.03,3.36-.66,6.63-1.45,10.12-1.22,0,0,.05,.19,.05,.19h0Z"/>
  </g>
  <g>
    <path class="cls-6" d="M53,325.53c4.11,3.54,10.39,8.13,18.92,11.68,10.97,4.56,20.78,5.36,26.86,5.37"/>
    <path class="cls-14" d="M53.06,325.46c5.39,3.15,10.36,6.79,15.69,9.99,3.67,1.93,7.82,2.7,11.78,3.73,6.06,1.37,12.03,2.35,18.24,3.31v.2c-6.25,.92-12.73,.24-18.73-1.7-4.05-1.17-7.72-3.3-11.57-4.96-3.89-1.54-7.81-3.24-11.03-6.01-1.64-1.32-3.18-2.76-4.51-4.41l.13-.15h0Z"/>
  </g>
  <g>
    <path class="cls-6" d="M120.26,342.35c12.22,.7,24.45,1.4,36.67,2.1"/>
    <path class="cls-14" d="M120.27,342.25c4.62-.88,9.22-.28,13.76,.56,4.58,.31,9.2-.41,13.79,.05,3.05,.27,6.09,.67,9.11,1.49v.2c-4.64,.67-9.21,.6-13.81,.06-3.05-.24-6.06-1.13-9.13-1.15-3.06,.1-6.14,.48-9.19-.08-1.52-.21-3.04-.47-4.54-.94v-.2h.01Z"/>
  </g>
  <g>
    <path class="cls-6" d="M191.27,339.78c7.15-.54,17.75-2.22,29.43-7.47,15.46-6.96,25.38-16.84,30.6-22.89"/>
    <path class="cls-14" d="M191.26,339.68c8.42-1.78,16.84-3.33,25.05-5.89,4.02-1.42,7.81-3.66,11.39-5.96,8.5-5.33,16.14-11.63,23.52-18.48,0,0,.15,.13,.15,.13-4.95,7.15-11.57,13.18-19.07,17.61-4.94,3.07-10.43,5.06-15.76,7.3-5.29,2.35-10.78,4.44-16.58,5.07-2.88,.38-5.78,.57-8.68,.41l-.02-.2h0Z"/>
  </g>
  <g>
    <path class="cls-10" d="M475.69,285.81c-6.54-6.85-18.06-18.37-34.57-27.72-16.83-9.53-32.92-10.91-66.33-9.65-7.21,.27-41.02,1.92-61.04,12.77-16.7,9.05-25.05,13.58-28.34,17.75-.39,.5-1.42,1.85-3.11,2.18-5.65,1.11-13.75-9.97-16.5-20.24-2.65-9.89-.15-18.28,1.56-23.98,4.34-14.52,13.15-23.56,16.19-26.47,9.83-9.39,19.9-12.51,35.5-17.13,26.84-7.95,49.55-8.28,66.95-8.41,9.44-.07,17.58-.1,28.65,1.25,10.2,1.24,27.06,3.43,46.09,12.46,11.54,5.47,19.15,9.08,25.85,17.75,6.15,7.96,8.03,15.67,10.9,27.4,2.65,10.84,4.46,18.67,.31,23.04-3.13,3.31-7.89,2.78-10.59,7.79-1.46,2.72-.76,4.17-2.49,6.54,0,0-4.61,9.3-9.03,4.67Z"/>
    <path class="cls-1" d="M475.61,285.88c-12.87-13.34-27.68-25.67-45.17-32.27-11.72-4.25-24.33-4.73-36.69-4.76-25.69,.32-56.39,1.48-79.71,12.94-1.93,1.01-8.38,4.49-10.3,5.51-6,3.44-12.54,6.4-17.49,11.29-6.7,9.21-15.79-5.31-18.45-11.27-4.14-8.57-4.38-18.57-1.63-27.58,4.55-18.21,17.56-34.67,35.38-41.37,17.56-6.68,35.88-11.34,54.6-13.14,12.47-1.25,24.98-1.34,37.46-1.38,18.75,.13,37.73,2.63,55.48,8.87,5.92,2.06,11.64,4.72,17.23,7.51,11.8,5.45,21.71,13.24,26.59,25.72,3.37,8.85,5.16,18.03,7.06,27.23,1.14,6.29,1.27,13.61-5.81,16.29-2.85,1.17-5.69,2.69-7,5.63-.91,1.74-.83,3.83-1.9,5.51-1.76,3.16-5.73,9.32-9.63,5.27h0Zm.14-.14c3.28,3.51,7.11-1.35,8.62-4.28,.86-1.3,1.46-2.7,1.69-4.27,.75-4.15,4.2-6.68,7.9-8.1,10.06-4.07,4.77-16.99,3.15-24.86-2.93-12.19-6.27-24.08-16.02-32.61-4.53-4.12-10.04-7-15.62-9.68-5.6-2.68-11.21-5.28-17.07-7.32-17.55-6.16-36.27-8.47-54.82-8.69-24.84-.3-49.87,.9-73.81,7.98-5.98,1.73-11.98,3.42-17.74,5.68-17.59,6.44-30.6,22.33-35.19,40.33-1.72,5.94-2.5,12.24-1.32,18.33,1.49,7.49,5.17,14.83,10.77,20.08,2.07,1.88,5.44,3.7,7.85,1.43,5.04-6.06,12.39-9.51,19.06-13.45,4.05-2.24,10.37-5.88,14.45-7.78,23.93-10.14,50.45-11.26,76.1-11.26,12.46,.14,25.24,1,36.99,5.5,5.9,2.18,11.33,5.37,16.57,8.75,10.45,6.84,19.91,15.11,28.44,24.21h0Z"/>
  </g>
  <g>
    <path class="cls-3" d="M477.32,304.77c.72-3.42,.23-8.35-.02-13.08-.24-4.63-2.83-8.57-2.31-10.71,1.94-8.1-11.9-20.47-27.09-28.26-5.05-2.59-24.79-12.13-74.16-9.46-61.48,3.33-79.22,20.76-82.45,24.17-6.31,6.69-5.28,22.25-5.28,22.25-2.12,4.42-6.22,10.48-6.22,19.73s.6,12.37,5.08,19.68c2.74,4.48,8.78,14.14,19.39,22.66,14.97,12.01,30.38,14.79,45.54,17.52,9.79,1.76,29.27,4.25,53.33-.16,16.56-3.03,32.22-5.89,47.33-18.37,12.74-10.51,18.3-22.25,21.49-28.96,3.91-8.25,3.98-10.4,5.37-17.01Z"/>
    <path class="cls-1" d="M477.22,304.75c.49-2.56,.37-5.2,.26-7.81-.19-2.3-.17-5.58-.68-7.8-.49-2.61-1.87-4.92-2.05-7.61,.58-2.61-.06-5.15-1.37-7.45-2.59-4.53-6.55-8.12-10.59-11.35-8.23-6.36-17.52-11.49-27.62-14.11-34.27-9.17-107.95-6.42-137.53,13.92-4.29,2.89-8.31,6.49-9.63,11.69-1.47,4.89-1.83,10.1-1.61,15.19,0,0,0,.12,0,.12v.06c.01-.07,0,.29-.11,.37l.08-.11c-2.65,5.17-5.34,10.36-5.87,16.21-.33,5.65-.35,11.68,1.9,16.95,2.38,5.2,5.77,10.06,9.23,14.63,10.55,13.86,25.87,23.64,42.86,27.46,22.52,5.53,46.15,7.34,69.04,2.9,14.25-2.41,28.74-5.5,40.94-13.61,12.26-7.94,21.54-19.79,27.46-33.06,2.7-5.22,4.24-10.83,5.28-16.6h0Zm.2,.04c-.97,5.77-2.48,11.47-5.13,16.72-6.95,16.16-18.83,30.48-34.69,38.49-10.46,5.46-22.22,7.84-33.7,9.98-11.55,2.16-23.36,3.01-35.11,2.46-11.76-.51-23.34-2.63-34.78-5.38-8.57-2.13-16.96-5.45-24.39-10.3-12.32-8.14-22.14-19.92-28.44-33.23-1.77-4.17-1.97-8.71-1.95-13.14-.08-4.43,.78-8.92,2.51-13,1.15-2.77,2.61-5.39,3.97-7.99-.12,.04-.13,.36-.12,.25v-.06s0-.12,0-.12c-.08-7.42,.39-16.62,5.6-22.39,5.6-5.63,12.82-9.32,20.06-12.36,32.28-13.11,90.78-17.11,124.31-7.48,10.18,2.88,19.5,8.3,27.69,14.92,4.04,3.36,7.94,7.08,10.49,11.73,1.31,2.29,1.97,5.08,1.36,7.66,.15,2.56,1.53,4.99,1.98,7.54,.52,2.25,.44,5.54,.64,7.85,.1,2.61,.21,5.27-.3,7.86h0Z"/>
  </g>
  <g>
    <path class="cls-10" d="M484.28,326.06c.33-5.53,.96-8.15-.51-10.93-.98-1.85-2.79-19.52-5.01-19.21-3.48,.49-4.87,21.05-9.26,28.17-3.93,6.37-8.19,10.73-18.71,16.68-7.08,4-12.86,6.22-15.2,7.08-6.78,2.51-36.98,8.3-37.02,7.65-3.81,.33-7.67,.62-11.69,.89-5.5,.37-40.96,2.67-42.43,1.04-8.63,.08-10.44-.09-11.98-.26-8.8-1-21.95-2.66-34.52-12.23-5.5-4.19-9.04-6.89-11.77-12.32-3.39-6.74-2.24-38.33-5.44-38.33-6.6,0-4.9,24.34-6.48,27.25-1.2,2.22-4.18,3.45-3.94,5.27,.2,1.55,2.05,1.7,2.07,3.03,.02,1.65-2.82,1.87-3.85,4.53-.9,2.3,.13,4.93,.59,6.1,.96,2.45,2.02,2.67,2.97,4.65,1.4,2.92,.79,5.92,.6,7.86-.55,5.9,2.02,11.05,4.84,16.7,3.57,7.13,9.36,11.67,17.1,15.77,17.8,9.42,36.08,11.32,44.92,12.07,22.57,1.91,38.43,3.25,60.77-.46,33.64-5.59,51.59-17.59,55.41-20.24,9.34-6.46,14.86-12.7,18.77-18.43,4.5-6.59,9.04-12.38,9.75-20.6,.33-3.78-.41-4.57,.03-11.74Z"/>
    <path class="cls-1" d="M484.18,326.06c.09-2.52,.69-6.3,.21-8.78-.14-.71-.38-1.4-.72-2.04-.76-2.11-.95-4.33-1.38-6.51-2.44-14.76-4.01-18.24-7.68-.93-.95,4.31-1.82,8.67-3.27,12.86-1.49,4.2-4.28,7.85-7.32,11.07-4.19,4.25-9.3,7.39-14.42,10.31-5.2,2.84-10.55,5.5-16.23,7.27-9.97,2.77-20.14,4.73-30.29,6.58-1.27,.2-2.99,.51-4.24,.56-.23,0-.41,0-.64-.12-.12-.07-.42-.19-.52-.77l.97,.83c-17.28,1.14-35.36,2.82-52.63,2.07-.74-.15-1.36-.05-2.02-.62,0,0,.46,.2,.46,.2-9.24,.21-18.5-.7-27.4-3.25-8.97-2.42-17.02-7.34-24.02-13.34-2.67-2.21-5.09-4.83-6.73-7.91-1.7-3.06-1.89-6.74-2.33-10.13-.24-2.29-.41-4.59-.57-6.88-.32-4.59-.54-9.18-.93-13.74-.22-2.27-.41-4.58-.98-6.75-.15-.51-.36-1.1-.64-1.34-5.53-.28-5.05,18.99-5.59,23.14-.11,1.16-.16,2.29-.5,3.5-.75,1.8-2.26,2.68-3.43,4.01-.73,.79-.82,1.71,.02,2.42,2.44,1.71,1.6,3.22-.51,4.55-4.05,2.79-1.65,8.38,1.08,11.39,2.26,3,1.62,6.94,1.34,10.36-.11,4.53,1.7,8.79,3.69,12.8,2.74,6.29,7.28,11.4,13.15,14.96,11.64,7.18,24.94,11.33,38.41,13.4,9.03,1.34,18.25,1.8,27.35,2.51,18.26,1.45,36.64,.4,54.5-3.66,17.72-3.98,35.51-10.11,50.01-21.32,7.35-5.54,13.06-12.84,18.03-20.5,3.17-4.74,5.64-10.11,5.78-15.88-.05-3.43-.32-6.9,0-10.33h0Zm.2,.01c-.47,4.6,.55,9.21-.24,13.77-.73,4.59-2.87,8.8-5.37,12.66-2.57,3.83-5.01,7.73-7.94,11.3-14.98,17.95-37.82,26.94-60.03,32.2-22.53,5.46-45.92,5.11-68.83,2.76-18.37-1.34-37.07-5.5-52.79-15.5-5.96-3.68-10.83-9.28-13.53-15.76-2.01-4.18-3.85-8.71-3.66-13.47,.24-3.3,1.05-6.81-1.01-9.67-1.45-1.65-2.79-3.96-3.16-6.27-1.56-7.54,7.1-6.62,2.92-9.67-2.97-2.91,2.38-4.96,3.27-7.33,.75-3.27,.61-6.82,.91-10.18,.29-3.6,.79-18.43,6.37-16.77,.58,.55,.68,1.14,.87,1.71,.59,2.29,.77,4.58,.99,6.88,.39,4.59,.6,9.18,.91,13.76,.68,6.65,.23,14.15,4.61,19.62,1.35,1.82,2.98,3.42,4.73,4.89,7,5.91,14.94,10.71,23.85,13.05,8.83,2.41,18.04,3.13,27.18,2.78,0,0,.46,.2,.46,.2-.1-.09,.01,0,.1,0,4.25,.64,8.62,.21,12.91,.14,13.04-.53,27.49-1.5,40.57-2.56,0,0,.97,.83,.97,.83-.14-.65-.4-.7-.69-.79,0,0,.05,0,.05,0h.22s.51-.06,.51-.06c11.2-1.65,22.47-3.91,33.42-6.67,5.6-1.62,10.94-4.14,16.11-6.82,5.14-2.78,10.25-5.79,14.44-9.87,3.03-3.1,5.87-6.62,7.38-10.74,1.5-4.15,2.37-8.49,3.33-12.79,.68-2.22,2.18-12.8,4.95-11.85,1.15,1.06,1.28,2.72,1.73,4.13,.69,2.87,1.17,5.78,1.67,8.68,.43,2.13,.6,4.4,1.33,6.43,.35,.66,.6,1.38,.73,2.12,.47,2.54-.15,6.26-.27,8.84h0Z"/>
  </g>
  <g>
    <path class="cls-11" d="M293.3,276.22c9.56-7.79,19.57-14.88,31.03-19.67,14.1-5.89,29.85-7.86,45.02-8.76,15.79-.94,30.92,.86,46.3,4.32,13.22,2.98,26.98,3.47,38.2,11.94,6.35,4.8,14.87,10.72,21.22,17.59-.02-.08-.03-.15-.04-.22-2.37-11.74-3.92-19.44-8.99-27.4-5.52-8.67-11.8-12.28-21.32-17.75-15.69-9.03-29.59-11.21-38.01-12.46-9.13-1.35-15.84-1.32-23.63-1.25-14.36,.13-33.08,.46-55.21,8.41-12.87,4.62-21.17,7.74-29.28,17.13-2.51,2.91-9.78,11.95-13.35,26.47-.29,1.19-.61,2.51-.92,3.92,2.1-.72,4.24-1.34,6.4-1.95,.87-.25,1.73-.35,2.57-.33Z"/>
    <path class="cls-12" d="M293.26,276.12c12.43-10.71,26.68-20.08,42.75-24.27,16.03-4.12,32.72-5.68,49.23-4.98,12.44,.52,24.55,3.21,36.65,5.87,8.07,1.58,16.35,2.87,23.94,6.24,3.82,1.61,7.29,4.01,10.53,6.54,6.56,4.95,13.28,9.82,18.95,15.88l-.6,.31c-1.03-5.01-2.02-10.04-3.49-14.91-2.81-9.74-8.67-18.63-17.28-24.13-22.26-15.03-45.9-19.93-72.45-19.03-20.45-.2-40.75,2.94-59.78,10.52-9.6,3.33-18.53,8.59-24.65,16.83-6.25,8.01-10.31,17.59-12.51,27.56l-.31-.28,4.47-1.29c1.44-.41,3.04-.97,4.55-.86h0Zm.07,.19c-1.63-.03-3,.51-4.51,.99,0,0-4.42,1.42-4.42,1.42l-.39,.13c1.88-10.25,5.75-20.24,12.06-28.63,3.1-4.13,6.78-7.92,11.13-10.82,4.32-2.93,9.12-5.01,13.9-6.88,9.56-3.76,19.45-6.93,29.63-8.6,10.16-1.79,20.5-2.31,30.75-2.4,23.08-.73,46.99,3.3,66.71,15.89,20.11,11.09,23.55,24.17,27.47,45.38-5.77-6.41-12.71-11.64-19.69-16.74-3.27-2.5-6.64-4.79-10.44-6.37-7.55-3.28-15.79-4.31-23.86-5.74-12.07-2.37-24.2-4.85-36.51-5.33-8.19-.41-16.38-.06-24.55,.67-12.23,1.1-24.45,3.19-35.87,7.76-11.48,4.64-21.64,11.65-31.4,19.27h0Z"/>
  </g>
  <path class="cls-12" d="M367.31,314.19c-8.84,.94-17.84,2.73-26.69,.76-4.55-.81-9.83-5.2-6.9-10.13,2.67-3.85,7.46-5.2,11.63-6.62,11.39-3.41,23.34-4.8,35.22-4.55,5.84,.6,23.9-1.34,23.03,7.64-1.41,7.43-17.13,3.65-22.25,2.47-1.44-.37-2.87-.75-4.27-1.26l.05-.14c5.04,1.16,21.91,4.65,24.78-.4,1.83-6.08-8.56-6.1-12.51-6.44-2.95-.11-5.92-.36-8.86-.45-11.74-.37-23.75,.02-35.03,3.6-3.97,1.42-8.53,3.02-10.87,6.68-2.2,4.21,2.58,7.6,6.32,8.32,8.63,1.99,17.56,.53,26.36,.38,0,0,0,.15,0,.15h0Z"/>
  <path class="cls-12" d="M430.73,302.43c6.65,4.4-.02,8.35-4.98,9.27-2.32,.49-4.67,.67-7,.91-6.96,.77-13.93,1.7-20.95,1.65-4.67-.02-9.32-.18-13.99-.55v-.15c9.14-1.13,18.72-.91,27.92-.98,5.8,.1,11.54-1.13,16.93-3.17,4-1.51,5.36-3.49,1.97-6.87,0,0,.1-.12,.1-.12h0Z"/>
  <path class="cls-12" d="M325.67,317.72c-1.72-1.07-3.9-1.52-5.02-3.42-1.84-4.11,.4-8.77,2.9-12.07,2.72-3.46,6.4-6.48,10.76-7.5,2.13-.46,4.24-.98,6.37-1.36,10.62-2.02,21.28-4.21,32.12-4.78,15.14-.92,30.6,.78,44.94,5.78-16.56-3.6-34.14-5.4-51.33-4.12-8.61,.45-17.21,1.62-25.57,3.83-2.1,.51-4.15,1.15-6.22,1.72-4.01,1.23-7.44,4.01-10.07,7.22-2.37,3.04-4.66,7.07-3.27,10.94,.84,1.78,3.01,2.42,4.47,3.63,0,0-.09,.12-.09,.12h0Z"/>
  <path class="cls-12" d="M366.08,324.77c-3.09,.77-6.22,.38-9.27-.25-3.09-.23-6.22,.26-9.3-.18-2.05-.27-4.09-.66-6.08-1.39l.02-.15c5.32-.72,10.21,.69,15.39,1.23,3.1-.25,6.22-.35,9.25,.58,0,0,0,.15,0,.15h0Z"/>
  <path class="cls-12" d="M436.22,291.63c7.33,4.55,12.1,15.06,5.81,22.4-7.94,6.27-18.13,8.71-28.03,9.39-4.96,.41-9.91,.44-14.84,.49-4.93,.06-9.85,.2-14.76,.76l-.03-.15c9.64-2.4,19.71-2.12,29.54-2.57,9.49-.43,20.61-1.66,27.38-8.48,3.71-5.18,2.61-12.12-.99-17.06-1.2-1.69-2.6-3.26-4.17-4.67l.09-.12h0Z"/>
  <path class="cls-12" d="M367.6,282.32c6.78-1.28,13.79-1.11,20.63-.49,11.49,.12,23,.23,34.26,2.9,0,0-.02,.15-.02,.15-10.35-.14-20.55-1.44-30.82-2.43-5.72-.4-11.43,.43-17.16,.2-2.29,0-4.58-.06-6.88-.18v-.15h0Z"/>
  <path class="cls-12" d="M323.3,330.32c-15.17-4.67-17.46-22.57-8.12-33.97,4.4-5.37,10.93-8.59,17.51-10.44,6.65-1.77,13.53-2.28,20.31-2.03v.15c-6.74,.69-13.45,1.55-19.88,3.42-9.31,2.63-19.65,7.97-22.13,18.11-1.5,6.48,.37,13.48,4.51,18.6,2.08,2.56,4.81,4.56,7.87,6.03l-.05,.14h0Z"/>
  <path class="cls-12" d="M443.81,323.37c-10.45,8.58-24.25,11.66-37.55,11.74-1.85,.11-4.77,.13-6.65,.19-19.97,.5-39.7-2.89-59.63-3.12,8.43-1.33,17.86-.48,26.58-.01,13.22,.91,26.41,3.14,39.68,2.45,4.35-.25,8.84-.97,13.08-1.86,8.63-1.55,17.06-5.2,24.49-9.4h0Z"/>
  <path class="cls-12" d="M413.73,269.04c9.64,1.16,17.94,6.55,25.71,11.98,10.64,5.95,21.46,19.34,15.3,31.9-1.53,2.88-3.91,5.2-6.62,6.92,0,0-.09-.12-.09-.12,4.8-3.99,7.82-9.96,6.82-16.21-1.12-7.63-5.87-14.56-11.72-19.49-3.77-2.82-8.14-4.93-12.23-7.21-2.76-1.51-5.51-3.01-8.37-4.28-2.85-1.31-5.8-2.39-8.82-3.35l.03-.15h0Z"/>
  <path class="cls-12" d="M366.61,269.09c3.45-1.76,7.29-2.24,11.1-2.29,3.76-.45,7.48-1.43,11.3-1.35,2.53,.04,5.07,.27,7.55,.91v.15c-6.29,.95-12.54,.18-18.8,.77-2.45,.53-4.83,1.35-7.35,1.59-1.24,.17-2.49,.33-3.77,.36l-.04-.15h0Z"/>
  <path class="cls-12" d="M319.44,283.19c3.4-2.6,7.44-4,11.53-5.02,3.96-1.4,7.71-3.37,11.78-4.48,2.69-.76,5.42-1.4,8.23-1.75l.04,.14c-6.33,3.34-13.22,4.35-19.88,6.55-2.54,1.15-4.96,2.55-7.63,3.4-1.31,.48-2.62,.94-4,1.29l-.07-.13h0Z"/>
  <path class="cls-12" d="M296.62,315.29c-.77-2.32-.74-4.88-.08-7.23,.59-1.72,1.48-3.31,2.07-5.03,1.69-5.15,4.88-9.92,9.51-12.87,0,0,.1,.11,.1,.11-1.99,2.85-4.2,5.78-6.25,8.55-1.29,1.95-2.84,3.79-3.57,6.05-.69,2.84-.95,5.74-1.42,8.62-.04,.58-.1,1.17-.21,1.78l-.15,.02h0Z"/>
  <path class="cls-12" d="M347.74,343.19c-5.77-.47-11.45-1.81-16.95-3.57-3.73-1.01-7.59-1.54-11.27-2.77-5.53-1.76-10.92-4.58-15.02-8.72,0,0,.09-.12,.09-.12,6.46,3.96,13.68,6.95,20.78,9.53,5.41,2.15,11.31,2.15,16.87,3.75,1.87,.49,3.72,1.05,5.53,1.75l-.03,.15h0Z"/>
  <path class="cls-12" d="M396.98,343.84c-4.84,1.62-10,1.88-15.06,1.69-3.38,.04-6.74,.62-10.12,.6-5.06,.1-10.18-.38-15.1-1.65,0,0,.02-.15,.02-.15,7.61-.21,15.09,.45,22.66,.8,4.21,.03,8.31-1.16,12.52-1.26,1.68-.11,3.35-.21,5.06-.18l.02,.15h0Z"/>
  <path class="cls-12" d="M443.02,335.06c-3.17,2.23-6.9,3.27-10.66,3.87-2.47,.56-4.8,1.66-7.28,2.19-3.7,.91-7.57,1.26-11.36,.72,0,0,0-.15,0-.15,6.16-1.62,12.53-1.76,18.52-3.23,2.35-.88,4.59-2.04,7.04-2.64,1.21-.35,2.42-.69,3.69-.9l.06,.14h0Z"/>
  <path class="cls-12" d="M412.72,256.05c11.82,1.64,23.17,6.87,32.08,14.84,12.04,9.99,22.41,25.15,20.04,41.48-.65,3.99-2.26,7.83-4.78,10.91l-.12-.09c2.1-3.36,3.35-7.14,3.74-10.99,1.26-15.22-7.68-31.34-19.18-40.95-9.29-7.33-20.84-11.64-31.77-15.22h0Z"/>
  <path class="cls-12" d="M313.27,270.91c9.97-5.14,20.83-8.66,31.75-11.13,6.44-1.62,15.44-4.02,21.93-4.97,11.08-1.75,22.57-2.18,33.67-.5,0,0-.01,.15-.01,.15-16.73-.37-33.63,1.17-50.02,4.45-5.29,1.12-10.96,3.03-16.07,4.86,0,0-21.18,7.29-21.18,7.29l-.06-.14h0Z"/>
  <path class="cls-12" d="M288.19,318.26c-1.83-3.39-2.77-7.29-2.78-11.17,.12-2.91,.69-5.74,1.14-8.6,1.24-8.61,6.41-16.89,14.39-20.7,0,0,.08,.13,.08,.13-2.92,2.47-5.52,5.18-7.71,8.19-3.22,4.53-6.04,9.7-6.76,15.28-.25,3.7,.28,7.57,.71,11.23,.32,1.87,.7,3.7,1.07,5.58,0,0-.14,.05-.14,.05h0Z"/>
  <path class="cls-12" d="M340.6,349.96c-3.68,.25-7.4-.08-10.99-.91-2.58-.72-5.35-1.73-7.93-2.38-8.04-1.91-16.02-5.46-21.64-11.69,0,0,.1-.11,.1-.11,6.82,4.4,14.15,8.37,21.7,11.32,4.33,1.49,8.95,1.57,13.4,2.57,1.8,.32,3.6,.63,5.39,1.05,0,0-.01,.15-.01,.15h0Z"/>
  <path class="cls-12" d="M396.23,351.53c-4.41,.68-8.83,.37-13.23-.08-4.41-.05-8.81,.7-13.24,.57-2.94-.07-5.89-.27-8.83-.8v-.15c7.36-1.2,14.7-.34,22.06-.1,2.94-.2,5.89-.58,8.84-.23,1.47,.13,2.94,.3,4.4,.64v.15h0Z"/>
  <path class="cls-12" d="M449.83,338.94c-3.58,2.93-7.75,4.49-12.17,5.62-2.85,.89-5.54,2.28-8.43,3.09-4.28,1.34-8.78,2.11-13.28,2.1,0,0-.02-.15-.02-.15,6.41-2.09,12.94-3.22,19.46-4.78,3.58-1.02,6.67-3.21,10.18-4.44,1.38-.57,2.75-1.13,4.19-1.58,0,0,.07,.13,.07,.13h0Z"/>
  <path class="cls-12" d="M479.21,272.27c-.16-4.06,.32-7.96,.27-11.99-.58-3.85-3.08-7.37-5.18-10.56-1.45-2.16-3.1-4.17-4.86-6.31l.12-.16c3.82,1.71,6.94,5,8.54,8.87,1.23,2.51,1.38,5.37,2.01,8.04,.72,2.65,1.34,5.46,.67,8.22-.27,1.36-.68,2.7-1.38,3.93l-.19-.05h0Z"/>
  <path class="cls-12" d="M460.33,236.18c-.92,.19-1.75,.06-2.41-.53-.51-.75-.86-1.41-1.9-1.42-1.76-.13-3.17-.96-3.87-2.72,0,0,.1-.17,.1-.17,1.44-.2,2.52,.13,3.48,1.02,.64,.44,.96,1.45,1.73,1.71,.37,.14,.87,.06,1.28,.14,.4,.08,.7,.35,.99,.63,.27,.31,.53,.65,.69,1.17l-.1,.17h0Z"/>
  <path class="cls-12" d="M440.5,225.21c-10.35-1.97-20.53-4.5-30.88-6.43-6.93-1.08-13.99-.85-20.98-.92-10.52,.1-20.93,.62-31.47,1.28l-.03-.2c10.29-2.5,20.96-3.43,31.54-2.96,7.06,.19,14.03,1.4,21.03,2.16,7.03,.62,14.07,1.4,20.85,3.44,3.4,.94,6.75,2.08,10.01,3.45l-.06,.19h0Z"/>
  <path class="cls-12" d="M349.67,220.78c-3.62,1.05-7.25,.99-10.94,1.13-2.43,.32-4.59,1.68-6.81,2.6-3.33,1.58-6.48,3.03-9.99,4.43,0,0-.12-.16-.12-.16,2.45-2.92,5.81-4.95,9.43-6.03,2.37-.83,4.95-.83,7.35-1.46,2.37-.76,4.8-1.6,7.34-1.34,1.25,.07,2.5,.23,3.72,.64v.2h0Z"/>
  <path class="cls-12" d="M313.05,232.21c-.18,.75-.53,1.32-1.24,1.47-.73-.05-1.29-.24-1.71,.56-.72,1.24-1.86,1.77-3.36,1.24,0,0-.09-.18-.09-.18,.36-1.17,.94-1.78,1.98-1.98,.54-.22,1.39,.16,1.86-.26,.24-.19,.35-.61,.55-.86,.2-.25,.5-.31,.81-.36,.25,0,1.04-.04,1.19,.37h0Z"/>
  <path class="cls-12" d="M299.77,238.49c-1,3.19-3.21,5.58-5.6,7.75-1.97,2.51-3.09,5.63-5.19,8.07-1.36,1.64-2.83,3.19-4.62,4.49l-.16-.12c1.18-3.09,2.93-5.73,5.11-8.13,1.34-1.65,3.19-2.91,4.35-4.7,1.06-1.85,1.89-3.86,3.49-5.35,.74-.77,1.52-1.52,2.46-2.13l.16,.12h0Z"/>
  <g>
    <path class="cls-8" d="M9.49,193.03c3.47,.3,3.33,7.12,8.89,12.79,5.25,5.36,8.94,8.6,19.6,13.69,7.17,3.43,12.99,5.25,15.34,5.96,17.13,5.14,31.65,5.51,48.65,5.83,5.78,.11,14.49-.13,31.9-.61,17.68-.48,20.11-.79,22.11-1.1,8.7-1.33,21.68-3.47,33.8-13,5.3-4.17,8.71-6.86,11.22-12.06,3.12-6.47,2.99-12.99,6.11-13.57,1.23-.23,2.59,.73,5.3,2.66,1.97,1.4,4.28,3.05,4.11,4.76-.14,1.46-1.97,1.68-1.94,2.93,.04,1.55,2.86,1.63,3.99,4.07,.98,2.11,.05,4.63-.36,5.74-.86,2.33-1.91,2.59-2.78,4.49-1.28,2.79-.56,5.58-.31,7.39,.77,5.5-1.6,10.44-4.19,15.86-3.27,6.84-8.85,11.35-16.38,15.53-17.31,9.62-35.38,12.21-44.12,13.31-22.32,2.8-38.01,4.76-60.31,2.28-33.58-3.73-51.84-14.18-55.73-16.48-9.51-5.63-15.21-11.24-19.3-16.42-4.71-5.97-9.43-11.19-10.44-18.85-.46-3.52,.24-4.29-.46-10.99-.54-5.16-1.25-7.59,.1-10.26,.9-1.78,2.97-4.14,5.19-3.95Z"/>
    <path class="cls-9" d="M9.5,192.93c.75,.06,1.43,.49,1.9,1.05,1.35,1.71,1.96,3.84,2.96,5.74,1.24,2.58,2.91,4.92,5,6.87,7.93,8.35,18.74,13.1,29.4,16.93,21.74,7.44,45.06,7.08,67.79,6.76,10.11-.3,24.37-.46,34.33-.9,11.29-.77,22.74-3.25,32.6-8.97,4.84-2.91,9.47-6.46,13.44-10.45,4.04-4.17,5.56-9.82,7.09-15.29,.49-1.39,.94-2.96,2.34-3.77,1.45-.81,3.08,.27,4.27,1.06,1.78,1.26,3.64,2.38,5.17,3.96,.49,.55,.99,1.2,1.09,2.06,.12,.83-.41,1.67-1.04,2.14-.58,.47-1.01,.88-.85,1.39,.13,.47,.79,.83,1.39,1.2,1.29,.71,2.54,1.89,2.87,3.41,.49,2.24-.23,4.5-1.24,6.5-.72,1.27-1.82,2.16-2.29,3.54-.5,1.26-.61,2.64-.49,4.01,.41,2.76,.9,5.85,.19,8.68-.59,2.89-1.74,5.58-2.94,8.19-3.17,8.26-10.39,14.25-17.99,18.27-15.15,8.53-32.44,12.24-49.56,14.08-17.08,2.28-34.4,3.79-51.61,1.96-17.18-1.69-34.31-5.33-50.11-12.43-10.51-4.71-20.32-11.46-27.59-20.46-3.49-4.56-7.39-8.92-9.61-14.29-2.49-5.38-1.3-11.33-2-17.02-.18-2.49-1-6.11-.43-8.59,.69-2.62,2.96-5.67,5.92-5.64h0Zm-.02,.2c-2.85,0-4.97,2.97-5.63,5.5-.55,2.39,.31,6.06,.51,8.49,.76,5.63-.45,11.56,2.16,16.84,2.29,5.22,6.26,9.47,9.81,13.92,3.66,4.35,7.96,8.13,12.65,11.34,9.37,6.49,20.08,10.74,30.98,13.88,21.93,6.21,44.98,8.27,67.68,6.15,5.69-.49,11.37-1.14,17.05-1.82,16.97-1.74,33.98-5.26,49.06-13.46,7.57-3.93,14.39-9.37,17.64-17.44,1.81-3.81,3.5-7.78,3.35-12.04-.17-2.79-1.11-5.9,.12-8.68,.47-1.39,1.68-2.44,2.39-3.63,1.6-2.91,2.36-7.13-1.27-8.85-.66-.43-1.43-.77-1.71-1.63-.56-1.68,2.12-2.15,1.89-3.65-.06-.59-.45-1.16-.9-1.66-1.46-1.51-3.32-2.65-5.03-3.88-1.14-.74-2.47-1.68-3.6-1.04-1.17,.66-1.6,2.17-2.04,3.39-.86,2.7-1.49,5.53-2.6,8.21-1.08,2.68-2.6,5.22-4.58,7.35-23.43,23.75-50.37,20.27-80.84,21.6-22.83,.47-46.4,.32-68.13-7.67-10.67-4.09-21.39-9.13-29.34-17.54-2.09-1.97-3.78-4.38-5.01-6.98-.98-1.9-1.57-4.02-2.89-5.71-.44-.54-1.06-.93-1.75-.99h0Z"/>
  </g>
  <g>
    <path class="cls-5" d="M7.52,177.31c.22,2.6,.2,4.17,.24,5.05,.26,6.4,4.75,16.75,12.55,24.54,4.67,4.66,8.91,6.79,16.51,10.62,2.12,1.07,8.21,4.03,16.65,6.51,6.32,1.85,10.87,2.52,18.88,3.71,10.54,1.55,18.52,1.98,21.32,2.11,5.78,.27,10.06,.22,16.08,.15,8.13-.09,7.81-.33,17.62-.52,9.58-.19,11.5,0,17.7-.42,4.19-.29,7.28-.5,11.49-1.21,1.7-.29,8.28-.19,16.83-3.28,4.96-1.79,8.37-4.27,12.69-6.94,4.74-2.92,7.56-4.65,9.99-8.24,1.53-2.27,3.01-2.73,4.44-6.43,.91-2.35,2.76-2.15,4.06-4.11,.61-.92,1.85-2.84,2.16-5.57,.2-1.79-.12-3.56-.75-7.1-.08-.44-.13-.63-.39-2.01-.74-3.82-.71-3.96-.8-4.13-2.12-4.11-23.28,4.31-23.28,4.31-16.26,8.31-40.27,3.38-77.4,9.64-18.58,3.13-30.22-1.85-47.95-4.29-20.32-2.79-27.39-5.06-34.4-10.34-6.64-5.01-13.59-13.03-15.2-11.66-.77,.65,.39,2.87,.95,9.61Z"/>
    <path class="cls-9" d="M7.62,177.3c.27,2.42,.1,4.9,.52,7.3,1.36,7.17,5.09,13.8,9.79,19.32,6.22,7.66,15.62,11.45,24.38,15.45,9.01,3.75,18.45,6.01,28.14,7.21,14.48,2.28,29.07,2.98,43.71,2.64,13.96-.74,28.2,.48,42.04-1.67,5.46-.48,10.95-1.05,16.13-2.94,4.67-1.49,8.74-4.2,12.85-6.82,4.15-2.55,8.4-4.99,11-9.25,.77-1.02,1.68-1.85,2.36-2.79,1.19-1.41,1.37-3.54,2.81-4.81,1.56-1.11,2.85-1.96,3.62-3.76,2.7-4.74,.21-10.51-.55-15.74,0,0-.17-.9-.17-.9l-.04-.19c-.02-.06,.02,.04-.02-.03-3.02-2.72-18.32,3.33-22.27,4.81-4.98,2.58-10.54,3.84-16,4.58-8.44,1.13-20.72,1.44-29.33,1.93-9.74,.55-19.45,1.37-29.07,2.86-9.68,1.85-19.77,2.03-29.47,.12-4.85-.85-9.61-1.94-14.4-2.84-9.58-1.83-19.41-2.79-28.82-5.58-4.73-1.37-9.29-3.51-13.16-6.56-3.88-3.02-7.34-6.5-11.03-9.69-1.31-1.06-5.15-4.5-3.98,.08,.44,2.4,.78,4.84,.97,7.28h0Zm-.2,.02c-.21-2.43-.58-4.84-1.04-7.24-1.11-4.76,2.58-2.01,4.47-.4,3.75,3.15,7.2,6.64,11.14,9.51,3.9,2.92,8.38,4.88,13.08,6.12,9.44,2.56,19.23,3.13,28.87,4.82,4.83,.83,9.62,1.84,14.42,2.6,9.61,1.71,19.26,1.6,28.84-.28,9.7-1.51,19.49-2.44,29.28-2.9,8.53-.41,20.84-.65,29.2-1.71,5.42-.69,10.75-1.91,15.61-4.32,4.02-1.52,8.12-2.9,12.29-3.99,3-.72,6.14-1.56,9.32-1.24,1.01,.09,2.55,.71,2.69,1.99,0,0,.16,.91,.16,.91,.58,4.22,2.11,8.59,1.48,12.89-.62,3.25-2.33,5.98-5.2,7.61-1.31,1.24-1.5,3.21-2.73,4.6-1.74,1.9-3.05,3.73-4.72,5.67-2.58,2.68-5.9,4.49-9,6.43-4.13,2.6-8.31,5.34-13.02,6.81-5.22,1.85-10.74,2.55-16.22,3.05-11.5,1.9-23.2,1.47-34.79,2.01-17.08,1.03-34.43,.89-51.33-1.96-12.16-1.58-24.19-5.12-35-10.99-6.58-3.28-13.08-7.16-17.66-13.04-4.59-5.71-8.36-12.34-9.65-19.61-.4-2.43-.21-4.89-.46-7.32h0Z"/>
  </g>
  <g>
    <path class="cls-8" d="M112.38,102.7c24.49,1.73,26.25,.99,34.15,1.86,16.25,1.79,27.9,7.6,51.19,19.22,2.83,1.41,7.08,3.61,10.81,8.29,.58,.73,6.77,8.72,7.06,19.34,.14,4.98,1.06,7.64-.36,10.16-.58,1.02-1.68,2.44-1.2,3.36,.43,.82,1.63,.28,2.83,1.1,1.72,1.18,2.23,4.35,1.7,6.66-.4,1.76-1.04,1.48-2.72,4.88-1.24,2.51-1.11,3.12-2.19,4.47-.76,.95-2.04,2.56-3.7,2.51-1.63-.04-1.9-1.64-3.85-1.88-1.94-.24-3.48,1.12-3.62,1.24-1.63,1.47-1.01,3.06-2.3,3.86-1.44,.89-2.58-.88-5.41-.67-1.91,.14-1.86,.98-5.23,2.14-.56,.19-2.18,.54-5.39,1.22-4.5,.95-5.13,1.02-6.06,.7-1.63-.56-2.12-1.6-3.17-1.36-1.24,.28-1.15,1.85-2.28,3.07-2.18,2.35-5.73-.06-12.36,.89-2.51,.36-1.89,.69-4.95,1.22-5.54,.97-6.83-.24-11.28,.31-6.55,.81-6.48,3.78-10.8,3.15-4.14-.6-6.34-3.63-8.7-2.33-1.65,.91-1.02,2.63-2.67,3.37-1.95,.87-5.15-.5-8.96-2.13-.31-.13-.93-.4-1.66-.27-1.17,.2-1.55,1.2-2.52,2.08-1.77,1.59-4.67,2.03-5.69,.95-.77-.81-.19-2.22-.75-2.48-.77-.36-1.65,2.51-3.69,2.99-2.37,.56-3.6-2.75-6.61-2.56-2.14,.13-2.05,1.83-4.38,2.15-3.11,.43-4.28-2.46-7.26-1.86-2.02,.4-2.34,1.89-3.82,1.59-1.79-.37-1.85-2.69-3.73-3.16-1.74-.44-2.45,1.37-4.26,.95-1.82-.42-1.7-2.4-3.62-3.18-2.21-.9-3.25,1.36-5.94,.76-2.5-.56-2.74-2.75-5-2.83-1.88-.07-2.17,1.43-3.88,1.24-2.27-.25-2.52-3.01-4.75-3.35-2.17-.33-3.39,2.05-4.86,1.29-1.1-.57-.67-2.03-1.79-2.78-1.74-1.15-3.82,1.68-6.05,.78-1.97-.8-1.42-3.45-3.55-4.73-2-1.21-3.47,.53-6.66,.41-3.68-.14-6.43-2.61-8.99-4.89-4.15-3.72-4-6.17-7.25-8.38-.47-.32-1.71-1.11-2.2-2.59-.34-1.03-.08-1.69-.12-2.7-.09-2.39-1.75-4.05-2.22-4.72-2.34-3.29,1.34-14.44,9.91-25.81,3.12-4.14,7.66-10.06,15.79-15.79,8.22-5.79,15.99-7.97,31.19-12.09,13.09-3.55,26.45-7.06,43.74-6.38,2.39,.09,1.13,.12,10.1,.76Z"/>
    <path class="cls-9" d="M112.39,102.6c5.72,.38,11.44,.72,17.16,.96,11.46,.27,23.08,.51,34.06,4.3,10.93,3.59,21.25,8.75,31.56,13.77,5.22,2.42,10.6,5.34,14.17,10.08,3.54,4.72,5.92,10.24,6.79,16.09,.39,2.93,.34,5.7,.65,8.63,.09,1.43,.19,3.03-.39,4.6-.38,1.13-1.62,2.5-1.65,3.46,0,.05,.03,.07,.02,.07,.15,.1,.64,.11,1.06,.2,3.53,.74,4.15,5.29,3.45,8.2-.14,.74-.65,1.59-1.11,2.15-.83,1.09-1.48,2.32-2.08,3.59-.59,1.29-1.07,2.87-2.06,3.94-1.14,1.51-3.21,3.28-5.27,2.25-.93-.49-1.58-1.46-2.57-1.59-1.79-.32-3.88,.9-4.39,2.74-.23,.72-.49,1.64-1.22,2.1-.71,.55-1.77,.44-2.52,.11-1.27-.53-2.58-.87-3.91-.59-1.89,.72-3.84,2.09-5.95,2.3-2.85,.6-5.6,1.31-8.5,1.71-1.5,.31-2.99-.83-4.1-1.48-1.53-.44-1.57,1.63-2.39,2.52-1.99,2.65-5.69,1.11-8.42,1.14-2.88-.24-5.65,.31-8.37,1.21-4.23,1.2-8.59-.02-12.85,.63-1.39,.21-2.75,.58-4.01,1.17-1.27,.56-2.41,1.52-3.94,1.87-1.52,.31-3.03,.02-4.42-.45-2-.53-3.75-2.26-5.8-2.06-1.62,.29-1.5,1.76-2.43,2.98-.6,.68-1.47,.92-2.24,.97-3.02,0-5.67-1.5-8.34-2.51-.57-.2-1.17-.16-1.61,.13-.45,.29-.85,.92-1.4,1.47-1.12,1.13-2.59,1.8-4.17,1.96-2.06,.18-3.33-.83-3.24-3.02,0-.14-.08-.22,.01-.11,.08,.13,.36,.02,.25,.07-.12,.07-.37,.39-.57,.66-1.57,2.35-3.82,3.36-6.23,1.34-1.16-.88-2.22-1.6-3.42-1.47-.61,.05-1.02,.24-1.51,.7-1,1.14-2.95,1.82-4.52,1.42-2.07-.37-3.55-2.35-5.69-1.72-1.03,.21-1.67,1.23-2.83,1.55-.55,.13-1.06,.04-1.52-.11-1.61-.57-1.88-2.35-3.09-2.93-.47-.18-.83-.17-1.36,.11-.52,.26-1.3,.84-2.34,.86-.97,.04-1.96-.46-2.55-1.17-.56-.68-.86-1.27-1.26-1.63-.94-.87-1.81-.7-3.01-.12-1.4,.73-3.48,.82-4.93-.05-.77-.43-1.35-1.04-1.83-1.48-.88-.84-1.8-1.05-2.8-.43-.26,.16-.56,.39-1,.61-1.3,.68-3.09,.17-4.01-.83-.61-.6-1.01-1.2-1.43-1.61-2.24-2.23-4.3,2.57-6.86,.18-.84-.66-.69-2.18-1.4-2.44-.79-.31-2.34,.83-3.42,1.04-.83,.25-1.96,.18-2.84-.34-2.31-1.33-1.71-5.78-5.25-4.66-6.37,2.43-11.79-2.07-15.87-6.57-1.91-2.16-2.83-4.83-5.29-6.35-1.33-.86-2.61-2.45-2.61-4.36,.04-1.59,.18-2.41-.53-3.72-.35-.73-.94-1.38-1.46-2.09,0,0-.34-.63-.34-.63-.24-.43-.27-.85-.4-1.27-.72-7.97,5.56-17.83,10.02-24.13,14.91-20.4,28.03-23.63,51.19-29.43,11.09-2.9,22.45-5.17,33.94-5.38,5.74-.21,11.46,.44,17.17,.87h0Zm-.01,.2c-5.71-.38-11.42-.98-17.15-.73-11.48,.26-22.71,2.8-33.71,5.92-10.87,3.22-22.27,5.63-31.87,11.88-9.5,6.21-16.85,15.23-22.55,24.96-2.16,3.99-6.48,12.27-4.6,16.56,1.09,1.33,2.16,2.89,2.37,4.69,.14,.85,0,1.75,0,2.27,0,1.02,.68,1.98,1.72,2.67,2.58,1.51,3.88,4.57,5.71,6.7,2.61,2.73,6.07,6.18,9.86,6.51,1.28,.13,2.44-.15,3.89-.56,1.62-.6,3.9,0,4.89,1.57,.74,1.02,.9,2,1.45,2.92,.42,.6,.99,.76,1.76,.57,.95-.23,1.98-.93,3.12-1.1,1.67-.33,2.99,1.03,3.3,2.51,.15,.47,.2,.61,.53,.67,.2,.04,.82-.34,1.48-.73,.66-.38,1.58-.79,2.56-.71,.93,.02,1.89,.53,2.51,1.17,.95,.94,1.42,2.13,2.69,2.22,.61,.01,.85-.28,1.44-.63,.73-.49,1.78-.72,2.67-.57,2.24,.23,3.18,3.01,5.44,2.91,1.46,0,2.46-1.14,4.17-1.05,.98,.06,1.82,.49,2.48,1.12,1.06,.98,1.17,2.3,2.56,2.37,.77,.01,1.9-1.05,2.96-1.05,1.41-.17,2.74,1.07,3.28,2.04,.71,1.04,1.3,1.74,2.39,.88,.54-.42,1.32-.94,2.14-1.13,.81-.2,1.71-.22,2.53,.03,1.98,.62,3.5,2.37,5.63,1.69,.94-.21,1.6-1.28,2.59-1.7,1.18-.52,2.6-.37,3.7,.2,1.69,.77,3.14,3.11,5.01,1.68,.49-.36,.91-.88,1.34-1.45,.37-.55,1.31-1.61,2.11-.88,.72,.78,.14,2.09,.74,2.51,1.48,.95,3.88-.05,5.07-1.22,.48-.45,.85-1.09,1.6-1.6,2.15-1.26,4.47,.91,6.5,1.43,1.77,.59,4.07,1.61,5.6,.28,.39-.41,.52-1.12,.94-1.83,.42-.73,1.19-1.22,2-1.38,2.34-.28,4.15,1.59,6.2,2.17,1.3,.45,2.72,.71,4.02,.44,1.3-.27,2.45-1.2,3.8-1.8,1.33-.63,2.77-1,4.21-1.21,2.85-.54,5.77,.1,8.61,0,2.89,.03,5.59-1.12,8.39-1.6,1.44-.2,2.9-.26,4.34-.19,2.11,.01,4.26,.66,6.3,.19,.63-.18,1.14-.58,1.53-1.11,.78-1.13,1.21-3.51,3.21-2.79,1.37,.69,2.22,1.65,3.77,1.4,2.77-.4,5.59-1.12,8.33-1.75,1.4-.26,2.73-.76,3.93-1.44,.6-.32,1.23-.79,2.04-.98,.78-.18,1.55-.18,2.32-.07,1.52,.17,2.96,1.3,3.73,.6,.43-.28,.57-.85,.79-1.58,.21-.72,.61-1.5,1.2-2.06,1.69-1.74,4.81-2.21,6.58-.4,1.63,1.59,3.23,.12,4.44-1.44,.96-1.09,1.21-2.39,1.82-3.68,.6-1.33,1.28-2.66,2.16-3.87,.46-.62,.7-1,.83-1.64,.45-2.15,.18-5.67-2.3-6.23-.3-.06-.63-.07-1.14-.2-1.32-.33-1.53-1.92-1.04-2.9,.41-1,1.17-1.93,1.49-2.82,.78-2.5-.03-5.53-.06-8.21-.11-7.01-2.69-13.85-6.79-19.48-3.42-4.59-8.38-7.29-13.5-9.73-5.12-2.56-10.21-5.19-15.37-7.66-10.26-4.99-21.01-9.23-32.42-10.52-5.68-.73-11.43-.62-17.15-.95-5.73-.28-11.45-.66-17.16-1.09h0Z"/>
  </g>
  <path class="cls-9" d="M196.54,198.65c-2.42,6.25-7.41,11.12-13.17,14.34-1.83,1.19-3.67,2.36-5.57,3.49-7.54,4.53-17.05,6.11-25.58,3.86,0,0,.02-.2,.02-.2,7.57-.26,14.91-1.19,22.05-3.59,3.05-.96,6.12-2.18,8.71-4.1,3.38-2.66,6.13-5.95,9.12-9.02,1.44-1.58,2.81-3.23,4.25-4.89l.17,.1h0Z"/>
  <path class="cls-9" d="M162.04,206.79c-5.53,1.03-11.08,.8-16.64,.54-3.71,.05-7.33,1.08-10.99,1.55-5.5,.89-10.95,1.52-16.57,1.64,0,0-.04-.2-.04-.2,3.52-1.33,7.16-2.16,10.84-2.76,5.53-.95,11.15-.51,16.72-.89,3.68-.49,7.38-1.16,11.12-.81,1.86,.12,3.72,.3,5.56,.71v.2h0Z"/>
  <path class="cls-9" d="M124.22,219.41c-4.45,1.71-9.22,1.64-13.86,1.01-3.1-.2-6.22,.35-9.32,.11-4.68-.19-9.32-1.17-13.6-3.15,0,0,.05-.19,.05-.19,4.7,.16,9.16,.72,13.74,1.46,3.03,.37,6.06,1.25,9.14,1.12,3.06-.25,6.08-.9,9.18-.77,1.54,0,3.07,.01,4.65,.2l.02,.2h0Z"/>
  <path class="cls-9" d="M95.53,209.13c-4.46-.04-8.64-1.29-12.83-2.59-2.85-.63-5.82-.3-8.7-.51-4.39-.13-8.64-.52-13-1.42,0,0,0-.2,0-.2,2.91-.66,5.87-.81,8.8-.73,4.44,.08,8.67,1.55,13.01,2.22,2.92,.2,5.9,.24,8.7,1.29,1.4,.46,2.78,.99,4.08,1.74l-.05,.19h0Z"/>
  <path class="cls-9" d="M66.75,214.89c-6.4,1.24-12.94,.24-19.05-1.77-4.13-1.11-8.43-1.71-12.43-3.28-6.08-2.16-11.76-5.55-16.38-10.07,0,0,.12-.16,.12-.16,5.69,2.97,11.19,5.84,16.97,8.49,3.44,1.46,8.19,3.78,11.86,4.39,4.17,.67,8.4,.74,12.58,1.38,2.09,.26,4.19,.47,6.32,.82v.2h0Z"/>
  <g>
    <path class="cls-8" d="M30.47,195.95c-2.33-1.95-5.12-4.04-8.41-6.07-3.88-2.4-7.55-4.15-10.74-5.45"/>
    <path class="cls-9" d="M30.41,196.03c-2.84-.9-4.85-2.79-6.86-4.82-1.48-1.16-3.44-1.51-5.08-2.33-2.62-1.12-4.95-2.45-7.18-4.35,0,0,.08-.19,.08-.19,1.98,.11,3.81,.69,5.55,1.45,2.66,1.12,4.6,3.37,6.99,4.88,1.71,.79,3.57,1.43,4.87,2.91,.67,.68,1.3,1.4,1.77,2.3l-.13,.15h0Z"/>
  </g>
  <path class="cls-9" d="M205.92,170.82c-8.12,5.13-17.32,8.19-26.68,10.06-6.18,1.48-12.28,3.43-18.59,4.34-9.43,1.56-19.13,1.75-28.58,.32v-.2c9.53-.43,18.89-1,28.33-1.99,6.25-.79,12.6-1.32,18.67-3.1,6.03-1.89,11.83-4.39,17.82-6.41,2.96-1.08,5.93-2.16,8.95-3.2l.09,.18h0Z"/>
  <path class="cls-9" d="M106.37,187.44c.86-.73,1.83-1.1,2.91-1.02,.51,.08,1.04,.35,1.54,.36,.5,.02,.99-.13,1.47-.37,.93-.47,1.91-.72,2.93-.81,1,0,2.02,.13,3.07,.67l.02,.2c-.93,.73-1.9,1.07-2.88,1.26-1.01,.11-2.02,.06-3.03-.23-.51-.14-1.02-.2-1.51-.08-.49,.11-.96,.48-1.44,.66-.48,.18-.99,.14-1.49,.09-.51-.08-1.02-.2-1.56-.53l-.02-.2h0Z"/>
  <path class="cls-9" d="M91.66,187.18c-.34,.53-.8,.94-1.34,.73-.22-.13-.45-.45-.67-.51-.22-.07-.45,.04-.67,.22-.41,.35-.85,.53-1.34,.52-.45-.09-.9-.33-1.34-.97v-.2c.45-.64,.9-.88,1.34-.97,.49-.01,.94,.17,1.34,.52,.22,.19,.45,.3,.67,.22,.22-.06,.45-.38,.67-.51,.54-.21,1,.2,1.34,.73,0,0,0,.2,0,.2h0Z"/>
  <path class="cls-9" d="M11.63,204.53c6.05,7.01,12.77,13.32,20.5,18.41,7.53,5.38,16.45,8.66,25.7,9.39,18.48,1.51,36.99,2.46,55.55,3.23,0,0,0,.2,0,.2-9.28,.89-18.62,1-27.93,.57-18.46-1.26-37.84-2.54-54.22-11.97-8.07-4.88-14.79-11.82-19.77-19.7l.16-.12h0Z"/>
  <path class="cls-9" d="M128.82,235.09c7.24,.06,14.37,.77,21.59,.85,4.81-.16,9.47-1.59,14.11-2.72,6.96-1.9,13.67-4.14,20.53-6.53l.09,.18c-6.06,4.09-13.02,6.81-20.2,8.18-4.76,1.04-9.67,1.04-14.49,1.53-4.81,.63-9.71,1.1-14.54,.3-2.41-.34-4.8-.82-7.12-1.6l.03-.2h0Z"/>
  <g>
    <path class="cls-7" d="M243.16,91.75c-3.71,.29-3.88,6.58-8.69,13.05-4.31,5.79-9.97,8.33-21.28,13.41-7.61,3.42-13.81,5.22-16.31,5.92-18.25,5.1-33.79,5.43-51.99,5.7-6.19,.09-15.52-.17-34.18-.69-18.95-.53-21.55-.85-23.7-1.16-9.34-1.35-23.29-3.53-36.46-13.12-5.76-4.19-9.47-6.89-12.27-12.12-3.47-6.49-3.47-13.02-6.83-13.62-1.33-.24-2.76,.73-5.62,2.65-2.08,1.4-4.52,3.04-4.3,4.76,.18,1.47,2.14,1.69,2.13,2.94-.01,1.55-3.03,1.62-4.19,4.06-1,2.11,.04,4.64,.51,5.76,.97,2.34,2.09,2.6,3.07,4.51,1.43,2.8,.71,5.59,.48,7.41-.71,5.51,1.92,10.47,4.81,15.9,3.65,6.86,9.71,11.39,17.86,15.6,18.74,9.68,38.14,12.33,47.53,13.45,23.97,2.86,40.81,4.88,64.64,2.46,35.89-3.65,55.23-14.06,59.35-16.36,10.07-5.62,16.06-11.21,20.34-16.4,4.92-5.97,9.87-11.18,10.8-18.86,.43-3.53-.34-4.3,.27-11.01,.47-5.17,1.19-7.6-.32-10.28-1-1.78-3.27-4.16-5.64-3.97Z"/>
    <path class="cls-4" d="M243.17,91.85c-1.52,.12-2.51,1.48-3.16,2.78-.69,1.33-1.25,2.73-1.88,4.1-1.25,2.74-2.76,5.4-4.76,7.69-3.99,4.64-9.71,7.18-15.1,9.79-24.73,12.73-52,14.96-79.35,14.41-5.72-.13-21.19-.48-27.11-.62-21.1-.42-43.05-1.53-60.8-14.36-4.87-3.51-10.08-7.11-12.92-12.58-2.3-3.9-2.8-8.65-5.06-12.48-2.07-2.85-5.23,.51-7.35,1.72-1.22,.85-2.5,1.69-3.34,2.81-.41,.56-.61,1.22-.35,1.76,.36,.87,2.26,1.42,2.02,2.78-.25,1.35-1.8,1.69-2.67,2.37-1.21,.77-1.92,2.06-1.89,3.48,.09,2.08,.94,4.3,2.36,5.89,1.7,1.63,2.67,4.06,2.58,6.42,0,1.58-.4,3.08-.45,4.51-.19,4.48,1.79,8.59,3.86,12.51,3.78,8.29,11.33,13.64,19.37,17.53,21.56,10.98,46.05,13.08,69.78,15.32,29.75,2.7,60.36-.26,88.47-10.62,12.52-4.76,24.51-11.8,33.03-22.31,6.52-7.52,11.27-13.27,10.23-23.86-.19-4.48,1.35-9.05,.66-13.46-.75-2.67-3.22-5.57-6.17-5.57h0Zm-.02-.2c3.14-.02,5.58,2.91,6.45,5.7,.76,4.49-.77,9-.54,13.52,1.08,10.68-3.47,16.61-9.97,24.39-8.44,10.8-20.43,18.34-33.06,23.33-16.9,6.7-34.95,10.08-53.02,11.53-18.11,1.57-36.27-.08-54.23-2.36-17.99-1.88-36.13-5.64-52.31-14.06-8.09-4-16-9.79-19.74-18.34-2.06-4.01-4.1-8.46-3.82-13.12,.09-1.59,.5-3.02,.51-4.47,.1-2.21-.73-4.24-2.28-5.81-1.52-1.78-2.41-4.09-2.49-6.48-.05-2.77,2.08-4.07,4.17-5.26,1.51-1.3-.98-1.8-1.48-3.06-.86-2.56,2.31-4.2,3.96-5.44,1.94-1.11,3.79-3.11,6.23-2.92,2.51,.6,3.08,3.57,3.84,5.59,.9,2.88,1.84,5.73,3.27,8.34,2.83,5.36,7.96,8.83,12.79,12.27,12.28,8.69,27.56,12.03,42.37,12.82,18.02,.6,36.08,.83,54.11,1.08,24.2,.06,48.14-2.42,70.12-13.2,5.42-2.46,11.08-4.98,15.08-9.53,1.99-2.24,3.51-4.86,4.77-7.58,1.41-2.45,1.99-6.44,5.27-6.96h0Z"/>
  </g>
  <g>
    <path class="cls-13" d="M244.95,76.01c-.18,2.6-.13,4.18-.15,5.06-.15,6.41-4.52,18.37-13.75,26.4-5.1,4.44-8.6,4.93-16.66,8.74-2.25,1.06-8.71,4.02-17.7,6.47-6.73,1.84-11.59,2.5-20.15,3.66-11.25,1.53-19.8,1.94-22.79,2.06-6.19,.25-10.77,.19-17.22,.1-8.71-.12-8.37-.36-18.89-.57-10.27-.21-12.32-.02-18.96-.47-4.5-.3-7.8-.52-12.34-1.25-1.82-.29-9.21,.02-18.43-3.1-5.35-1.81-8.7-4.54-13.39-7.22-5.14-2.93-9.07-4.65-11.74-8.26-1.69-2.28-2.7-3.04-4.82-5.84-1.59-2.1-2.19-2.8-3.62-4.77-.67-.92-2.04-2.85-2.42-5.59-.25-1.8,.05-3.57,.66-7.11,.08-.44,.12-.63,.38-2.01,.71-3.82,.68-3.96,.77-4.13,2.18-4.11,25.02,4.38,25.02,4.38,17.59,8.37,43.19,3.5,83.09,9.88,19.96,3.19,32.33-1.77,51.27-4.16,21.7-2.74,29.23-4.99,36.63-10.27,7.01-5,14.29-13.02,16.04-11.64,.84,.66-.36,2.87-.82,9.63Z"/>
    <path class="cls-4" d="M245.05,76.02c-.21,2.58,.02,5.18-.38,7.75-1.61,8.93-6.34,17.27-12.93,23.48-4.69,4.66-11.19,6.49-16.95,9.36-11.66,5.79-24.47,8.97-37.34,10.48-15.39,2.3-31,2.68-46.53,1.99-14.84-1.01-29.77-.22-44.52-2.5-8.34-.51-16.99-1.6-24.4-5.77-2.28-1.27-4.42-2.71-6.64-4.01-4.4-2.7-9.53-4.57-12.83-8.78-3.25-4-6.78-7.8-9.65-12.21-3.01-4.73-.99-10.43-.24-15.49,0,0,.33-1.92,.33-1.92,.02-.09,.03-.17,.06-.3,2-4.97,21.55,2.23,25.7,3.56,.89,.32,1.78,.8,2.71,1.12,9.58,3.63,20.06,3.96,30.23,4.47,15.07,.56,31.59,1.29,46.44,3.58,0,0,3.84,.59,3.84,.59,8.83,1.45,17.86,1.28,26.71-.06,5.08-.72,10.16-1.7,15.27-2.54,10.2-1.7,20.55-2.25,30.61-4.62,4.99-1.17,9.88-2.92,14.14-5.82,4.3-2.83,8.05-6.42,12.07-9.68,1.54-1.27,6.24-5.01,5.31-.38-.46,2.55-.85,5.09-1.03,7.67h0Zm-.2-.01c.13-2.91,.7-5.77,1.06-8.64,.1-2.73-4.11,1.03-4.93,1.64-3.96,3.3-7.72,6.88-11.98,9.87-4.24,3.05-9.21,4.96-14.23,6.26-10.04,2.6-20.41,3.52-30.56,5.37-5.07,.91-10.13,1.97-15.27,2.78-8.97,1.53-18.31,1.64-27.31,.2,0,0-3.82-.58-3.82-.58-10.19-1.48-20.46-2.32-30.76-2.89-9.09-.5-22.04-.84-31-1.95-5.98-.73-12.3-2.08-17.69-4.69-3.97-1.42-21.94-7.96-24.09-4.7-.54,3.15-1.29,6.36-1.72,9.5-.42,2.5-.01,4.94,1.25,7.12,2.73,4.31,6.18,8.19,9.38,12.24,3.11,4.12,8.2,6.03,12.51,8.69,2.23,1.33,4.37,2.78,6.6,4.04,7.33,4.22,15.88,5.2,24.19,5.65,14.7,2.22,29.65,1.03,44.45,1.8,20.56,.56,41.29-.77,61.48-4.74,4.99-1.14,9.94-2.58,14.76-4.36,4.85-1.75,9.48-4.1,14.28-5.96,9.81-3.5,16.91-12.04,20.76-21.51,.96-2.39,1.72-4.86,2.16-7.39,.42-2.55,.21-5.15,.44-7.72h0Z"/>
  </g>
  <g>
    <path class="cls-7" d="M131.13,.97c-26.19,1.67-28.09,.92-36.54,1.77-17.37,1.75-29.72,7.54-54.43,19.11-3.01,1.41-7.51,3.6-11.4,8.28-.61,.73-7.07,8.72-7.17,19.36-.05,4.99-.98,7.65,.59,10.18,.64,1.03,1.85,2.45,1.36,3.37-.44,.82-1.74,.28-3.01,1.1-1.82,1.18-2.29,4.35-1.69,6.67,.46,1.76,1.14,1.49,3.01,4.89,1.38,2.52,1.25,3.13,2.44,4.49,.83,.96,2.24,2.57,4.01,2.53,1.75-.04,2.01-1.63,4.08-1.87,2.07-.24,3.75,1.13,3.9,1.25,1.77,1.48,1.14,3.07,2.54,3.87,1.56,.9,2.74-.87,5.78-.66,2.05,.14,2.01,.99,5.65,2.16,.61,.2,2.35,.55,5.79,1.24,4.84,.97,5.51,1.04,6.51,.72,1.73-.56,2.23-1.6,3.37-1.36,1.33,.29,1.27,1.86,2.51,3.08,2.39,2.36,6.14-.04,13.25,.92,2.69,.36,2.04,.69,5.32,1.24,5.96,.99,7.31-.22,12.09,.34,7.03,.83,7.02,3.8,11.63,3.19,4.42-.59,6.71-3.62,9.27-2.31,1.79,.91,1.15,2.64,2.93,3.38,2.11,.88,5.51-.49,9.56-2.11,.33-.13,.98-.4,1.78-.27,1.26,.21,1.68,1.21,2.74,2.09,1.93,1.6,5.05,2.05,6.11,.97,.8-.81,.16-2.22,.75-2.48,.82-.36,1.82,2.52,4.02,3,2.55,.56,3.8-2.74,7.03-2.55,2.3,.14,2.24,1.84,4.74,2.17,3.33,.44,4.53-2.45,7.74-1.85,2.17,.41,2.55,1.9,4.12,1.6,1.91-.37,1.93-2.69,3.93-3.16,1.86-.44,2.65,1.38,4.58,.96,1.94-.42,1.77-2.4,3.82-3.18,2.35-.89,3.51,1.37,6.38,.78,2.66-.55,2.87-2.75,5.3-2.82,2.01-.06,2.36,1.44,4.18,1.25,2.43-.25,2.64-3.01,5.02-3.34,2.32-.32,3.67,2.06,5.23,1.3,1.17-.57,.67-2.04,1.86-2.78,1.84-1.15,4.13,1.69,6.5,.79,2.09-.79,1.45-3.45,3.71-4.73,2.12-1.2,3.72,.54,7.15,.42,3.94-.13,6.84-2.59,9.52-4.87,4.37-3.71,4.16-6.17,7.6-8.37,.5-.32,1.81-1.11,2.3-2.59,.34-1.03,.05-1.7,.07-2.71,.05-2.4,1.79-4.06,2.29-4.72,2.44-3.29-1.73-14.47-11.14-25.89-3.43-4.16-8.4-10.1-17.23-15.86-8.92-5.83-17.29-8.03-33.65-12.2C174.8,3.16,160.43-.39,141.92,.24c-2.56,.09-1.2,.12-10.8,.73Z"/>
    <path class="cls-4" d="M131.13,1.07c-6.01,.4-12.02,.76-18.04,1.03-6.01,.32-12.05,.2-18.03,.86-12.01,1.16-23.43,5.21-34.37,10.16-5.49,2.45-10.9,5.07-16.35,7.63-5.4,2.49-10.86,4.96-14.66,9.63-4.06,5.07-6.83,11.52-7.18,18.05-.05,2.22-.23,4.59-.36,6.76-.07,1.46,.02,2.81,.68,3.92,.64,1.18,2.24,2.74,1.43,4.35-.58,1.16-2.14,.8-2.99,1.22-2.19,1.2-2.32,4.88-1.29,6.92,1.39,1.7,2.66,3.84,3.53,5.89,.72,1.94,3.38,5.54,5.71,4.33,.51-.3,1.11-.95,1.96-1.28,2.41-.9,5.34,.3,6.59,2.5,.41,.75,.54,1.57,.85,2.03,.93,1.26,2.26,.27,3.55-.01,.77-.2,1.59-.28,2.39-.22,1.62,.01,2.89,1.12,4.32,1.67,2.76,1.07,5.78,1.43,8.68,2.11,1.39,.24,2.96,.68,4.34,.58,1.86-.21,3.72-2.92,5.36-.57,.55,.95,.94,2.02,1.85,2.63,1.13,.8,2.7,.64,4.16,.54,3-.31,6.08-.45,9.08,.06,2.9,.74,5.8,1.57,8.82,1.52,2.98-.02,6.07-.51,9.06,.08,1.51,.24,3.01,.67,4.4,1.33,1.4,.64,2.64,1.52,4.05,1.7,3.04,.39,5.65-1.24,8.4-2.38,1.51-.66,3.64-.25,4.45,1.34,.4,.74,.59,1.41,1.08,1.77,2.48,1.39,5.68-.45,8.17-1.28,1.47-.6,3.23-1.55,4.76-.45,.74,.53,1.15,1.16,1.68,1.6,1.34,1.14,3.91,2.12,5.46,1.11,.43-.52,.21-1.04,.35-1.84,.17-1,1.3-1.07,1.83-.51,1.2,1.14,2.2,3.01,4.02,2.64,1.32-.35,2.4-1.65,3.8-2.19,1.55-.71,3.71-.49,4.92,.7,1.05,.97,2.27,1.23,3.59,.97,1.43-.33,2.59-1.38,4.13-1.76,1.65-.46,3.6,.15,4.85,1.14,.61,.42,.88,.47,1.42,.31,1.21-.57,1.65-2.48,3.27-3,.87-.36,2.04-.22,2.83,.2,1.07,.53,1.58,.87,2.5,.49,.95-.49,1.07-1.44,2.09-2.3,.73-.62,1.63-1,2.63-1.02,1.01-.02,1.85,.38,2.51,.63,1.98,.91,3.74,.3,5.19-1.26,1.21-1.3,3.67-1.67,5.23-.64,.76,.46,1.11,.67,1.6,.65,1.83-.08,2.37-2.42,4.13-3.07,1.29-.62,3.01-.26,4.08,.38,.88,.43,1.45,.99,2,.63,.28-.38,.4-1.21,.81-1.82,.31-.49,.8-.87,1.33-1.08,1.71-.66,3.41,.61,4.89,.96,1.21,.33,2.01-.29,2.38-1.4,.47-1.54,1.79-3.43,3.63-3.77,2.48-.43,4.53,1.06,6.83,.7,2.71-.18,5.13-1.8,7.38-3.68,2.45-1.89,4.09-3.9,5.81-6.51,.7-.97,1.62-1.92,2.64-2.61,.9-.57,1.64-1.06,2.09-1.92,.26-.53,.32-.92,.24-1.62-.39-2.06,.63-4.4,1.99-5.93,0,0,.36-.43,.36-.43,.1-.12,.14-.21,.21-.31,.73-1.76,.19-3.94-.34-5.83-2.26-7.04-6.53-13.3-11.18-19-5.57-6.99-12.26-13.07-20.03-17.49-10.47-5.81-22.5-8.22-33.97-11.41-11.62-3.08-23.47-5.52-35.52-5.78-6.03-.24-12.02,.33-18.03,.69h0Zm-.01-.2c6.01-.41,12.02-1.03,18.05-.84,12.08,.22,24.03,2.38,35.73,5.23,23.68,5.64,38.95,8.52,55.33,28.52,3.9,4.7,7.38,9.77,9.95,15.34,1.27,2.9,2.42,5.82,2.46,9.09,.03,1.02-.28,2.39-1.03,3.28-.32,.42-.72,.84-.99,1.26-.79,1.15-1.06,2.19-.89,3.6,.09,.84,0,1.98-.46,2.76-.77,1.6-2.32,2.27-3.55,3.31-1.65,1.48-2.51,3.5-4.09,5.22-1.04,1.21-2.27,2.24-3.42,3.2-3.68,3.32-8.5,5.23-13.35,3.5-2.14-.71-3.3,.44-3.97,2.41-.35,.83-.9,1.78-1.79,2.24-.92,.5-2.05,.55-2.91,.31-1.38-.26-2.44-1.26-3.73-1.06-.35,.16-.47,.31-.72,1.12-.82,2.6-3.15,2.3-5.03,1.02-2.27-1.34-3.15,.23-4.62,1.77-1.42,1.42-3.71,1.37-5.22,.19-.54-.32-1-.41-1.59-.35-1.41,.17-2.06,1.61-3.45,2.25-1.54,.85-3.61,.77-5.12,.06-1.27-.57-2.27-.82-3.32,.05-.69,.57-1.39,2.14-2.54,2.54-1.23,.67-3.04,.02-3.91-.55-1.23-.62-2.05-.12-2.82,1.01-.99,1.64-3.05,2.7-4.85,1.26-1.72-1.43-3.68-1.29-5.52-.16-2.07,1.32-5.27,1.45-7.06-.41-.56-.48-1-.74-1.64-.81-1.29-.18-2.46,.44-3.68,1.34-2.43,1.99-4.83,1.34-6.63-1.07-.24-.29-.48-.59-.68-.77-.11-.12-.16-.07-.03-.08,.14-.01,.21-.2,.16-.09-.1,.44,.13,1.62-.71,2.43-.74,.68-1.67,.74-2.57,.71-1.65-.13-3.2-.75-4.44-1.84-.61-.54-1.07-1.19-1.56-1.54-1.14-.85-2.61,.11-3.78,.51-2.18,.8-4.27,1.71-6.69,1.76-.81,0-1.68-.16-2.4-.73-1.27-1.1-1.03-2.8-2.74-3.2-2.16-.42-4.03,1.34-6.13,1.91-1.46,.48-3.02,.8-4.61,.59-1.63-.23-2.92-1.18-4.24-1.78-6.27-3.11-13.45-.18-19.94-2.41-3.56-1.22-7.37-.92-11.06-.57-1.54,.11-3.24,.31-4.61-.63-.69-.47-1.18-1.16-1.53-1.85-.35-.68-.64-1.36-1.2-1.52-.66-.24-1.19,.21-1.77,.56-.67,.41-1.38,.77-2.22,.91-3.12,.04-6-.95-9.04-1.47-2.23-.39-4.51-.96-6.5-2.13-1.25-.7-2.7-.67-4.04-.32-1.06,.26-2.38,1.09-3.6,.54-1.23-.4-1.62-2.15-2.04-2.99-.92-1.61-3.36-2.62-5.14-1.9-.58,.23-1.01,.73-1.78,1.23-3.29,1.8-6.5-2.16-7.64-4.83-.61-1.34-1.32-2.64-2.13-3.82-.9-1.17-2.15-2.64-2.2-4.26-.31-2.41,.21-5.57,2.69-6.8,.56-.33,1.72-.36,2.19-.51,.05-.03,.02,0,.03-.01,0-.02,.02-.04,.01-.11-.1-.91-.96-1.64-1.44-2.58-1.79-3.2-.52-7.02-.65-10.44,.13-7.39,2.96-14.57,7.65-20.26,3.97-4.8,9.81-7.46,15.32-9.92,10.96-5,21.94-10.16,33.53-13.58,8.7-2.59,17.78-3.65,26.84-3.73,9.03-.17,18.05-.6,27.07-1.15h0Z"/>
  </g>
  <path class="cls-4" d="M230.13,89.57c-6.35,4.24-13.62,6.7-21.01,8.34-4.87,1.3-9.57,3.24-14.52,4.27-7.38,1.75-15.02,2.49-22.59,1.88,0,0,0-.2,0-.2,9.77-1.65,19.87-3.06,29.63-4.78,7.52-1.05,14.14-4.93,21.27-7.28,2.36-.84,4.71-1.7,7.14-2.41l.09,.18h0Z"/>
  <path class="cls-4" d="M170.93,116.52c-8.38,1.98-16.99,2.21-25.55,1.89-5.7,0-11.39,.77-17.1,.73-8.57,.14-17.14-.5-25.57-2.15l.02-.2c8.58-.19,17.05,.05,25.58,.47,5.67,.15,11.37,.83,17.05,.5,5.67-.45,11.3-1.29,17-1.36,2.84-.09,5.68-.18,8.55-.08l.02,.2h0Z"/>
  <path class="cls-4" d="M106.92,102.19c-4.07,.93-8.16,.22-12.08-.92-4.01-.6-8.15-.35-12.09-1.44-2.62-.69-5.2-1.58-7.61-2.94l.05-.19c4.12,.21,8,.94,11.92,2,2.6,.58,5.13,1.73,7.82,1.93,2.68,.09,5.38-.17,8.04,.42,1.32,.23,2.65,.49,3.97,.94v.2h-.01Z"/>
  <path class="cls-4" d="M77.81,113.71c-4.25,.85-8.83,.43-12.75-1.46-1.37-.62-3.34-1.48-4.75-2.03-7.4-2.48-14.1-7.54-17.61-14.61,0,0,.16-.12,.16-.12,3.81,3.48,7.45,6.75,11.46,9.87,3.03,2.21,6.08,4.7,9.82,5.59,2.89,.55,5.79,1.01,8.66,1.6,1.65,.32,3.31,.58,5.01,.96v.2h0Z"/>
  <path class="cls-4" d="M182.28,120.21c4.41-1.59,8.97-2.03,13.57-2.56,3.02-.57,5.76-2.13,8.61-3.19,4.27-1.78,8.46-3.38,12.97-4.67,0,0,.09,.18,.09,.18-3.67,2.95-7.94,5-12.44,6.28-2.95,.95-6.12,1.15-9.08,2.04-2.93,1-5.87,2.14-9.02,2.22-1.55,.1-3.11,.13-4.68-.1l-.02-.2h0Z"/>
  <g>
    <path class="cls-7" d="M244.41,58.03c-2.85,4.14-10.15,13.49-23.2,18.53-7.19,2.78-13.68,3.3-18.06,3.27"/>
    <path class="cls-4" d="M244.5,58.08c-1.73,3.73-4.36,7.04-7.51,9.68-2.87,2.18-6.01,3.89-8.92,6-7.14,5.03-16.23,7.6-24.91,6.16,0,0,0-.2,0-.2,6.04-.9,11.77-2.09,17.5-3.97,3.73-1.37,7.64-2.64,10.84-5.08,2.74-2.19,6.02-5.94,8.6-8.37,1.41-1.42,2.77-2.89,4.23-4.34l.16,.11h0Z"/>
  </g>
  <g>
    <path class="cls-7" d="M198.17,81.54c-6.18,.73-12.35,1.45-18.53,2.18"/>
    <path class="cls-4" d="M198.18,81.64c-1.41,.84-2.94,1.26-4.55,1.27-.79-.04-1.6-.27-2.38-.24-2.33,.22-4.49,1.47-6.86,1.56-1.56,.09-3.13,.04-4.75-.42l-.02-.2c2.19-1.18,4.44-1.66,6.85-1.66,1.55-.11,3.17,.41,4.71,.07,1.49-.45,2.95-1.18,4.58-1,.79,.04,1.58,.11,2.4,.4l.02,.2h0Z"/>
  </g>
  <g>
    <path class="cls-7" d="M164.85,84.18c-11.51,.14-23.64-.49-36.28-2.18-1.47-.2-2.92-.4-4.36-.62"/>
    <path class="cls-4" d="M164.85,84.28c-5.07,1.2-10.24,.78-15.3-.05-5.1-.3-10.26,.28-15.34-.47-3.38-.45-6.74-1.16-10.01-2.28l.03-.2c5.12-.18,10.19,.27,15.25,.98,3.36,.37,6.7,1.32,10.1,1.32,3.39-.11,6.78-.57,10.18-.17,1.69,.14,3.39,.3,5.09,.66v.2h0Z"/>
  </g>
  <g>
    <path class="cls-7" d="M111.6,83.41c-8-.37-16.48-1.15-25.38-2.49-2.54-.38-5.03-.8-7.47-1.25"/>
    <path class="cls-4" d="M111.59,83.51c-4.16,.95-8.34,.32-12.4-.66-4.12-.45-8.34,.03-12.44-.77-2.72-.52-5.42-1.22-8.02-2.31l.04-.2c4.23-.24,8.27,.28,12.36,1.08,2.71,.42,5.37,1.44,8.13,1.55,2.76-.01,5.52-.35,8.26,.2,1.36,.21,2.73,.45,4.09,.9v.2h0Z"/>
  </g>
  <g>
    <path class="cls-7" d="M69.09,79.36c-2.31-.36-4.82-.86-7.47-1.56-1.65-.44-3.21-.91-4.67-1.4"/>
    <path class="cls-4" d="M69.07,79.46c-1.07,.49-2.17,.57-3.23,.18-.94-.59-1.84-1.19-3.02-.96-2.22,.23-4.35-.47-5.91-2.18,0,0,.06-.19,.06-.19,1.2-.31,2.25-.24,3.26-.03,1.56,.29,2.79,1.64,4.31,1.91,1.13-.03,2-.43,3.13,.16,.49,.22,.97,.46,1.42,.92l-.03,.2h0Z"/>
  </g>
  <g>
    <path class="cls-7" d="M48.07,74.38c-.93-.21-1.87-.42-2.8-.62"/>
    <path class="cls-4" d="M48.05,74.47c-.2,.35-.35,.48-.5,.58-.14,.07-.27,.13-.36-.02-.15-.33-.18-.92-.64-.44-.26,.26-.51,.43-.81,.35-.19-.08-.57-.72-.45-1.3,.6-.95,1.18-1.05,1.5-.13,.08,.21,.17,.34,.3,.3,.13-.03,.32-.32,.46-.42,.14-.1,.24,0,.34,.13,.09,.13,.27,.6,.16,.94h0Z"/>
  </g>
  <g>
    <path class="cls-7" d="M29.36,109.55c3.03,4.15,10.77,13.5,24.65,18.57"/>
    <path class="cls-4" d="M29.44,109.49c3.17,2.41,5.53,5.46,8.05,8.45,1.86,1.83,4.33,2.83,6.54,4.15,3.43,1.9,6.69,3.68,10.01,5.92,0,0-.07,.19-.07,.19-3.99-.5-7.78-2.1-10.96-4.52-2.2-1.48-3.86-3.65-5.94-5.26-2.15-1.52-4.42-3.02-5.87-5.31-.76-1.09-1.45-2.23-1.92-3.51l.16-.12h0Z"/>
  </g>
  <g>
    <path class="cls-7" d="M78.51,133.14c6.57,.74,13.14,1.47,19.7,2.21"/>
    <path class="cls-4" d="M78.52,133.04c1.67-.49,3.35-.54,5.01-.18,.81,.22,1.59,.63,2.41,.78,2.46,.33,5-.38,7.47,.09,1.63,.28,3.25,.69,4.82,1.51l-.02,.2c-2.55,.64-5,.57-7.48,.01-1.63-.25-3.19-1.14-4.86-1.17-1.66,.09-3.34,.46-4.98-.1-.81-.22-1.61-.48-2.39-.95l.02-.2h0Z"/>
  </g>
  <g>
    <path class="cls-7" d="M113.94,135.85c12.24,.16,25.15-.45,38.59-2.12,1.56-.19,3.1-.4,4.64-.62"/>
    <path class="cls-4" d="M113.94,135.75c5.39-1.07,10.81-.82,16.24-.47,3.62,0,7.17-.94,10.75-1.3,5.38-.71,10.78-1.15,16.22-.96,0,0,.03,.2,.03,.2-3.49,1.12-7.07,1.82-10.67,2.27-5.41,.75-10.88,.15-16.31,.44-3.59,.43-7.2,1.07-10.84,.72-1.81-.11-3.62-.29-5.42-.69v-.2h0Z"/>
  </g>
  <g>
    <path class="cls-7" d="M170.58,135.16c8.51-.36,17.53-1.12,27-2.45,2.7-.38,5.35-.79,7.95-1.23"/>
    <path class="cls-4" d="M170.58,135.06c4.3-1.32,8.72-1.28,13.13-1.08,2.93-.1,5.77-1.12,8.66-1.54,4.36-.79,8.66-1.31,13.15-1.06,0,0,.03,.2,.03,.2-2.79,1.08-5.66,1.78-8.56,2.29-4.37,.79-8.83,.31-13.22,.75-2.89,.53-5.77,1.3-8.75,1.09-1.47-.04-2.95-.14-4.43-.45v-.2h0Z"/>
  </g>
  <g>
    <path class="cls-7" d="M211.42,125.74c2.46-.35,5.13-.85,7.95-1.54,1.76-.43,3.41-.9,4.97-1.39"/>
    <path class="cls-4" d="M211.41,125.64c.93-.79,1.96-1.23,3.13-1.26,.56,.03,1.16,.24,1.71,.19,1.63-.27,2.96-1.62,4.61-1.9,1.07-.21,2.19-.27,3.44,.04l.06,.19c-1.31,1.31-2.84,1.98-4.59,2.16-1.09,.22-2.33-.25-3.4,.14-1.08,.5-1.88,1.22-3.2,1.06-.57-.04-1.15-.12-1.75-.42l-.03-.2h0Z"/>
  </g>
  <g>
    <path class="cls-7" d="M232.14,117.64c.99-.21,1.99-.41,2.98-.62"/>
    <path class="cls-4" d="M232.12,117.54c.05-.4,.14-.59,.23-.74,.1-.13,.21-.23,.36-.13,.29,.24,.57,.75,.8,.13,.37-.92,.97-.84,1.58,.13,0,0,.04,.2,.04,.2-.18,1.13-.7,1.45-1.4,.75-.16-.16-.31-.24-.42-.14-.11,.08-.17,.43-.27,.58-.1,.15-.24,.1-.38,.02-.14-.08-.51-.43-.55-.78h0Z"/>
  </g>
  <path class="cls-12" d="M290.86,344.32c5.02,4.95,10.29,9.66,16.51,12.99,4.27,2.01,9.13,2.39,13.73,3.03,7.05,.71,13.96,.54,21.08-.05,0,0,.04,.2,.04,.2-9.05,3.3-19.31,3.1-28.37-.08-6.73-2.44-14.01-4.58-18.93-10.1-1.66-1.77-3.12-3.71-4.22-5.86l.16-.12h0Z"/>
  <path class="cls-12" d="M360.98,361.4c1.12-.52,2.27-.64,3.41-.32,.54,.2,1.05,.59,1.6,.71,1.61,.27,3.31-.52,5.07-.12,1.1,.22,2.17,.6,3.2,1.37l-.02,.2c-1.19,.5-2.32,.6-3.44,.55-1.81-.04-3.25-1.23-4.89-1.36-1.19,.13-2.15,.57-3.37,.04-.54-.2-1.07-.43-1.58-.88l.02-.2h0Z"/>
  <path class="cls-12" d="M278.13,329.43c1.15,.62,2,1.51,2.5,2.67,.2,.58,.24,1.26,.5,1.8,.89,1.56,2.65,2.53,3.45,4.2,.55,1.07,.97,2.21,1.05,3.56l-.17,.1c-1.17-.68-2-1.58-2.7-2.55-1.13-1.47-1.19-3.48-2.18-4.98-.87-.9-1.89-1.49-2.27-2.82-.2-.58-.37-1.17-.36-1.88l.17-.1h0Z"/>
  <path class="cls-12" d="M398.29,359.58c6.27-.38,12.45,.01,18.7-.12,4.15-.3,8.11-1.82,12.05-3.01,5.92-1.97,11.58-4.21,17.44-6.55l.1,.17c-4.94,3.98-10.85,6.73-17.02,8.19-4.07,1.12-8.34,1.22-12.49,1.85-4.13,.77-8.36,1.43-12.58,.87-2.1-.22-4.19-.56-6.22-1.2l.02-.2h0Z"/>
  <path class="cls-12" d="M480.28,315.28c-.07,3.71-1.79,6.98-3.91,9.89-1.64,3.17-2.58,6.72-4.77,9.61-1.42,1.92-3.04,3.71-5.04,5.13l-.15-.13c1.51-3.31,3.32-6.2,5.43-9.07,1.28-1.94,3.05-3.65,3.96-5.83,1.04-3.4,2.1-6.76,4.3-9.67,0,0,.19,.06,.19,.06h0Z"/>
  <path class="cls-12" d="M460.9,342.59c-.6,1.04-1.45,1.77-2.55,2.13-.54,.13-1.17,.09-1.67,.28-1.42,.64-2.33,2.24-3.98,2.88-1,.41-2.07,.69-3.32,.62l-.09-.18c.67-1.06,1.52-1.77,2.44-2.34,1.49-.97,3.3-.77,4.66-1.56,.89-.76,1.38-1.64,2.67-1.89,.54-.13,1.1-.23,1.75-.14l.09,.18h0Z"/>
</svg>